<?xml version="1.0" encoding="UTF-8"?> <svg xmlns="http://www.w3.org/2000/svg" id="Layer_1" data-name="Layer 1" width="50" height="50" viewBox="0 0 50 50"><defs><style>.cls-1{fill:#ec145b;}</style></defs><path class="cls-1" d="M21.27,19v-3h-.6c-.58,0-.86-.28-.86-.85,0-.91,0-1.83,0-2.74,0-.6.27-.86.89-.87h.56V10.11c-.71,0-1.43,0-2.15,0a2.58,2.58,0,0,1-1.85-.56c-.47-.37-1-.64-1.48-1a1.18,1.18,0,0,1-.41-.76,25.78,25.78,0,0,1,0-2.78,1.07,1.07,0,0,1,.38-.73c.68-.51,1.4-1,2.12-1.42a1.16,1.16,0,0,1,.61-.16h13a1.41,1.41,0,0,1,.69.2c.67.42,1.31.88,2,1.3a1,1,0,0,1,.47.89c0,.88,0,1.77,0,2.65a.9.9,0,0,1-.45.85l-.11.08a5.6,5.6,0,0,1-4.73,1.45,4.27,4.27,0,0,0-.62,0v1.48h.61a.76.76,0,0,1,.84.87c0,.9,0,1.79,0,2.69,0,.63-.27.89-.91.9h-.54v3h9.41a2.23,2.23,0,0,1,2.44,2.45V44.76a2.24,2.24,0,0,1-2.48,2.46H11.9a2.25,2.25,0,0,1-2.49-2.46V21.47A2.24,2.24,0,0,1,11.9,19h9.37Zm1.5-3V18.8a1.51,1.51,0,0,1-1.72,1.7H11.91c-.78,0-1,.23-1,1v23.2c0,.79.23,1,1,1H38.08c.79,0,1-.23,1-1V21.53c0-.8-.23-1-1-1H29a1.52,1.52,0,0,1-1.72-1.74v-2.7ZM25,8.62c1.78,0,3.56,0,5.33,0A3.37,3.37,0,0,0,32.39,8a1.62,1.62,0,0,0,.81-1.47,1.86,1.86,0,0,0-1.08-2,2.94,2.94,0,0,0-1.46-.42c-3.65,0-7.3,0-10.95,0a3.67,3.67,0,0,0-2.18.66,1.57,1.57,0,0,0-.73,1.37,1.88,1.88,0,0,0,1.12,2.06,2.69,2.69,0,0,0,1.38.39C21.2,8.61,23.1,8.62,25,8.62Zm3.69,4.48H21.32v1.43h7.37Zm-5.9-1.54h4.4V10.13h-4.4Z"></path><path class="cls-1" d="M25,41.28H15.58a1.51,1.51,0,0,1-1.71-1.7q0-6.48,0-12.94A1.51,1.51,0,0,1,15.56,25H34.44a1.51,1.51,0,0,1,1.69,1.68q0,6.5,0,13a1.5,1.5,0,0,1-1.67,1.66ZM15.38,26.46v13.3H34.63V26.46Z"></path></svg> 