<?xml version="1.0" encoding="UTF-8"?> <svg xmlns="http://www.w3.org/2000/svg" id="Layer_1" data-name="Layer 1" width="50" height="50" viewBox="0 0 50 50"><defs><style>.cls-1{fill:#ec145b;}</style></defs><path class="cls-1" d="M38.82,18.7H29v-3h.52c.7,0,1-.31,1-1V11.9c0-.7-.3-1-1-1H29V9.42h.2a2.84,2.84,0,0,1,.42,0,5.92,5.92,0,0,0,5-1.54l.11-.08a1,1,0,0,0,.5-.93c0-1,0-1.93,0-2.79a1.06,1.06,0,0,0-.51-1c-.28-.17-.55-.36-.82-.54S33,2,32.6,1.74a1.57,1.57,0,0,0-.75-.23c-4.63,0-9.24,0-13.7,0a1.57,1.57,0,0,0-.75.23c-.44.27-.88.57-1.31.86l-.8.53a1,1,0,0,0-.48.9c0,1,0,2,0,2.83a1,1,0,0,0,.49.94l.29.19c.49.31,1,.63,1.45,1a2.24,2.24,0,0,0,1.4.46h.13c.58,0,1.18,0,1.75,0H21v1.46h-.65a.82.82,0,0,0-.88.87c0,1,0,2.06,0,3.07a.81.81,0,0,0,.85.85H21v3H11.14a2.39,2.39,0,0,0-2.57,2.53V45.94a2.4,2.4,0,0,0,2.56,2.55H38.87a2.39,2.39,0,0,0,2.56-2.59V21.29A2.41,2.41,0,0,0,38.82,18.7Zm-16.11-.38V15.69h4.58v.78c0,2-.05,2.93.45,3.43s1.49.49,3.49.46h.16c1.74,0,3.51,0,5.22,0h2.14c.8,0,1,.22,1,1V45.8c0,.8-.22,1-1,1H11.26c-.81,0-1-.22-1-1V21.39c0-.81.22-1,1-1H20.7C22.15,20.36,22.71,19.79,22.71,18.32Zm4.54-8.88v1.41H22.73V9.44ZM23.34,7.75c-1.41,0-2.87,0-4.31,0h0a3.13,3.13,0,0,1-1.48-.46,1.86,1.86,0,0,1-1.08-2,1.59,1.59,0,0,1,.76-1.45,3.71,3.71,0,0,1,2.17-.67h.05c3.93,0,7.83,0,11.6,0h0a3.08,3.08,0,0,1,1.37.39,1.94,1.94,0,0,1,1.16,2.2,1.53,1.53,0,0,1-.72,1.32,3.55,3.55,0,0,1-2.36.7c-.76,0-1.53,0-2.29,0H23.34Zm5.49,4.83V14H21.19v-1.4Z"></path><path class="cls-1" d="M13.25,26.74V40.41a1.63,1.63,0,0,0,1.83,1.83H34.92a1.63,1.63,0,0,0,1.83-1.82V26.79A1.65,1.65,0,0,0,34.89,25H15.06A1.62,1.62,0,0,0,13.25,26.74Zm1.68,13.8V26.63H35.05V40.54Z"></path></svg> 