<?xml version="1.0" encoding="UTF-8"?> <svg xmlns="http://www.w3.org/2000/svg" id="Layer_1" data-name="Layer 1" width="50" height="50" viewBox="0 0 50 50"><defs><style>.cls-1{fill:#ec145b;}</style></defs><circle class="cls-1" cx="33.02" cy="29.72" r="0.9"></circle><path class="cls-1" d="M45.28,26.3a.74.74,0,0,1-.75-.75V6.11A2.54,2.54,0,0,0,42,3.58H38.66a2.54,2.54,0,0,0-2.54,2.53.75.75,0,0,1-1.5,0,4,4,0,0,1,4-4H42a4,4,0,0,1,4,4V25.55A.75.75,0,0,1,45.28,26.3Z"></path><path class="cls-1" d="M39.43,12.14H31.3V9.43a4.07,4.07,0,1,1,8.13,0Zm-6.63-1.5h5.13V9.43a2.57,2.57,0,1,0-5.13,0Z"></path><path class="cls-1" d="M29.66,30.47H25.13a.75.75,0,1,1,0-1.5h4.53a.75.75,0,0,1,0,1.5Z"></path><path class="cls-1" d="M45,30.47H36.3a.75.75,0,0,1,0-1.5H45a1.29,1.29,0,0,0,0-2.58H25a.75.75,0,0,1,0-1.5H45a2.79,2.79,0,0,1,0,5.58Z"></path><path class="cls-1" d="M12.92,30.47H5a2.79,2.79,0,0,1,0-5.58h8a.75.75,0,1,1,0,1.5H5A1.29,1.29,0,0,0,5,29h7.94a.75.75,0,1,1,0,1.5Z"></path><path class="cls-1" d="M34.88,45.1H15.37A11.15,11.15,0,0,1,4.23,34V29.72a.75.75,0,0,1,1.5,0V34a9.65,9.65,0,0,0,9.64,9.64H34.88A9.65,9.65,0,0,0,44.53,34V29.72a.75.75,0,0,1,1.5,0V34A11.15,11.15,0,0,1,34.88,45.1Z"></path><path class="cls-1" d="M25.75,37.78H12.37v-12a2,2,0,0,1,2-2h9.39a2,2,0,0,1,2,2Zm-11.88-1.5H24.25V25.78a.5.5,0,0,0-.5-.5H14.36a.5.5,0,0,0-.49.5Z"></path><path class="cls-1" d="M7.47,47.92A2.84,2.84,0,0,1,6,47.54a2.91,2.91,0,0,1-1.1-3.9L6.77,40.3a.76.76,0,0,1,1-.3.75.75,0,0,1,.3,1L6.26,44.36a1.39,1.39,0,0,0,.53,1.88,1.41,1.41,0,0,0,1.89-.49L10.33,43a.75.75,0,1,1,1.28.77L10,46.52A2.89,2.89,0,0,1,7.47,47.92Z"></path><path class="cls-1" d="M42.84,47.92a2.91,2.91,0,0,1-2.5-1.4l-1.65-2.76A.75.75,0,1,1,40,43l1.65,2.76a1.4,1.4,0,0,0,2.42-1.39L42.22,41a.75.75,0,1,1,1.31-.72l1.83,3.34a2.9,2.9,0,0,1-1.1,3.9A2.8,2.8,0,0,1,42.84,47.92Z"></path></svg> 