<?xml version="1.0" encoding="UTF-8"?> <svg xmlns="http://www.w3.org/2000/svg" id="Layer_1" data-name="Layer 1" width="50" height="50" viewBox="0 0 50 50"><defs><style>.cls-1{fill:#ec145b;}</style></defs><path class="cls-1" d="M41.13,6.77H22.46a1.29,1.29,0,0,0-1.29,1.29v2.19A1.31,1.31,0,0,0,22,11.47L24,34.83a2.76,2.76,0,0,0,2.73,2.51h1v1h-.46a1.5,1.5,0,0,0-1.5,1.5v3a1.5,1.5,0,0,0,1.5,1.5h9.16a1.5,1.5,0,0,0,1.5-1.5v-3a1.5,1.5,0,0,0-1.5-1.5h-.5v-1h1a2.76,2.76,0,0,0,2.73-2.52l1.91-23.34a1.29,1.29,0,0,0,.9-1.23V8.06A1.3,1.3,0,0,0,41.13,6.77ZM29.33,38.39v-1h4.9v1Zm-2,4.33V40h8.87v2.69ZM39.87,11.54,38,34.69a1.1,1.1,0,0,1-1.09,1H26.7a1.1,1.1,0,0,1-1.09-1L23.69,11.54Zm.91-3.13V9.9h-18V8.41Z"></path><path class="cls-1" d="M31.78,16.08c-1.37,0-5.23,6.49-5.23,8.78a5.23,5.23,0,1,0,10.45,0C37,22.57,33.15,16.08,31.78,16.08Zm3.58,8.78a3.58,3.58,0,1,1-7.16,0c0-1.67,2.44-5.57,3.58-6.88C32.92,19.28,35.36,23.17,35.36,24.86Z"></path><path class="cls-1" d="M26.31,14.65h11a.83.83,0,1,0,0-1.65h-11a.83.83,0,0,0,0,1.65Z"></path><path class="cls-1" d="M6.89,5.51h0A6.25,6.25,0,0,0,.65,11.44a1,1,0,0,0,.6,1.05l1.23.63c.5.27,1,.54,1.52.79a.47.47,0,0,1,.34.55c0,1.86-.06,3.73-.08,5.6L4.17,27.7Q4.08,34.48,4,41.27a4,4,0,0,0,.21,1.4,2.82,2.82,0,0,0,2.67,1.82,3.66,3.66,0,0,0,.57-.05,2.89,2.89,0,0,0,2.32-2.82c0-1.83,0-3.66-.06-5.49l0-1.83q-.13-10-.26-19.95c0-.22,0-.28.22-.37.43-.22.86-.44,1.28-.67s1-.52,1.5-.77a1.11,1.11,0,0,0,.68-1.21A6.27,6.27,0,0,0,6.89,5.51ZM6.35,12.8a1,1,0,0,1,.91-.07,1,1,0,0,1,.64.89c0,1.86,0,3.72.07,5.58L8,21H5.77v0l0-1.64c0-1.85,0-3.7.07-5.55A1.18,1.18,0,0,1,6.35,12.8ZM5.59,34.87l.16-12.21v-.12H8l0,2.69.21,16.25a1.53,1.53,0,0,1-.43,1.12,1.39,1.39,0,0,1-2.31-1.12Q5.56,38.17,5.59,34.87Zm5.84-23.54-1.72.9-.55.29a2.62,2.62,0,0,0-2.25-1.38h0A2.65,2.65,0,0,0,4.6,12.51l-.4-.2c-.63-.33-1.28-.66-1.88-1A.45.45,0,0,1,2.25,11a4.52,4.52,0,0,1,3-3.68,4.62,4.62,0,0,1,4.09.34A4.57,4.57,0,0,1,11.54,11C11.56,11.26,11.52,11.29,11.43,11.33Z"></path><path class="cls-1" d="M49.19,27.08,49,9.07V8.8q0-.6,0-1.2a.75.75,0,0,0-1-.81c-1,.2-2.2.46-3.44.76-.34.09-.53.53-.57.61a1.4,1.4,0,0,0-.06.53.76.76,0,0,1,0,.15l-.36,32.24v.61a2.89,2.89,0,0,0,2.88,2.77,3.16,3.16,0,0,0,.68-.08,2.91,2.91,0,0,0,2.22-3C49.3,37,49.26,32.68,49.19,27.08ZM45.44,8.9l1.77-.38.22,0V11.1h-2v-.31C45.47,10.15,45.47,9.52,45.44,8.9Zm0,12.08V12.67h2.07V21Zm2.41,20.44a1.38,1.38,0,0,1-2.27,1.21,1.46,1.46,0,0,1-.47-1.14q0-4.18.1-8.36l.14-10.33v-.25h2.25v0Q47.72,32,47.83,41.42Z"></path><path class="cls-1" d="M19.56,11.62c0-.23.09-.45.13-.68a8.23,8.23,0,0,0,.21-1.58,2.67,2.67,0,0,0-2.49-2.79,3.17,3.17,0,0,0-2.62.66,3,3,0,0,0-.92,2.43,8,8,0,0,0,.23,1.4c.05.22.1.43.14.64a1.6,1.6,0,0,0,0,.21,2.67,2.67,0,0,1,.07.47Q14.3,18,14.22,23.6l0,3.37v.24l0,2.5c0,2.29-.07,4.58-.09,6.87l0,1c0,1.35,0,2.69,0,4a2.87,2.87,0,0,0,.85,2,2.9,2.9,0,0,0,2.05.82H17a2.9,2.9,0,0,0,2.8-3.15l0-2.39q-.16-13.19-.33-26.37a2.69,2.69,0,0,1,.08-.61C19.52,11.83,19.55,11.72,19.56,11.62Zm-3.9-.5A4.06,4.06,0,0,1,15.43,9a1,1,0,0,1,.91-.89,3,3,0,0,1,.88,0A1.19,1.19,0,0,1,18.4,9.36a4.14,4.14,0,0,1-.3,1.76Zm2.25,1.57V21H15.85v-8.3Zm-2.16,10a1.27,1.27,0,0,0,0-.2H18v.08l.24,18.82a1.38,1.38,0,0,1-1.12,1.5A1.36,1.36,0,0,1,15.59,42a2,2,0,0,1-.06-.53Q15.64,32.1,15.75,22.74Z"></path></svg> 