<?xml version="1.0" encoding="UTF-8"?> <svg xmlns="http://www.w3.org/2000/svg" id="Layer_1" data-name="Layer 1" width="50" height="50" viewBox="0 0 50 50"><defs><style>.cls-1{fill:#ec145b;}</style></defs><path class="cls-1" d="M37.41,6H12.59a1.38,1.38,0,0,1-1.38-1.38V1.73A1.38,1.38,0,0,1,12.59.35H37.41a1.38,1.38,0,0,1,1.38,1.38v2.9A1.38,1.38,0,0,1,37.41,6Zm-24.7-1.5H37.29V1.85H12.71Z"></path><path class="cls-1" d="M31.77,40.32H18.22a3.31,3.31,0,0,1-3.28-3l-2.66-32a.75.75,0,1,1,1.49-.13l2.66,32a1.82,1.82,0,0,0,1.79,1.65H31.77a1.82,1.82,0,0,0,1.8-1.66l2.61-32A.75.75,0,0,1,37,4.51a.76.76,0,0,1,.69.81l-2.62,32A3.32,3.32,0,0,1,31.77,40.32Z"></path><path class="cls-1" d="M20.62,43.9a.76.76,0,0,1-.75-.75V39.57a.75.75,0,0,1,1.5,0v3.58A.76.76,0,0,1,20.62,43.9Z"></path><path class="cls-1" d="M29.33,43.9a.76.76,0,0,1-.75-.75V39.57a.75.75,0,0,1,1.5,0v3.58A.76.76,0,0,1,29.33,43.9Z"></path><path class="cls-1" d="M31.09,49.66H18.91A1.65,1.65,0,0,1,17.26,48v-4a1.65,1.65,0,0,1,1.65-1.65H31.09a1.65,1.65,0,0,1,1.65,1.65v4A1.65,1.65,0,0,1,31.09,49.66ZM18.91,43.9a.14.14,0,0,0-.15.15v4a.15.15,0,0,0,.15.16H31.09a.15.15,0,0,0,.15-.16v-4a.14.14,0,0,0-.15-.15Z"></path><path class="cls-1" d="M25,30.67a6.61,6.61,0,0,1-6.61-6.6c0-3.16,5.12-11.34,6.61-11.34s6.6,8.18,6.6,11.34A6.61,6.61,0,0,1,25,30.67ZM25,14.4c-1.29,1.32-5.11,7.14-5.11,9.67a5.11,5.11,0,0,0,10.21,0C30.08,21.52,26.27,15.71,25,14.4Z"></path><path class="cls-1" d="M32.28,10.14H17.7a.75.75,0,0,1,0-1.5H32.28a.75.75,0,0,1,0,1.5Z"></path></svg> 