<?xml version="1.0" encoding="UTF-8"?> <svg xmlns="http://www.w3.org/2000/svg" id="Layer_1" data-name="Layer 1" width="50" height="50" viewBox="0 0 50 50"><defs><style>.cls-1{fill:#ec145b;}</style></defs><path class="cls-1" d="M22.43,43.61V40.33c-1.12-.26-2.24-.45-3.31-.78A21.51,21.51,0,0,1,6.49,29.36a23,23,0,0,1-3.1-12.48A1.42,1.42,0,0,1,3.84,16a.86.86,0,0,1,.82,0,1.16,1.16,0,0,1,.39.79c0,.71,0,1.44,0,2.19H7.15A17.71,17.71,0,0,1,14.21,4.83,17.19,17.19,0,0,1,26,1.2,17.86,17.86,0,0,1,42.84,19h2.09c0-.67,0-1.35,0-2,0-.23,0-.54.11-.65a1.48,1.48,0,0,1,.88-.42c.46,0,.7.4.69.86,0,1.07,0,2.16-.11,3.23a23,23,0,0,1-5.77,13.27,21.25,21.25,0,0,1-13.15,7.05v3.34h4.56A3.82,3.82,0,0,1,36,46.84c.22,1.22-.3,1.86-1.54,1.86H15.56c-1.23,0-1.76-.64-1.54-1.86a3.82,3.82,0,0,1,3.83-3.23ZM25,2.87A16.13,16.13,0,1,0,41.12,19,16.16,16.16,0,0,0,25,2.87ZM5.27,20.72a21.17,21.17,0,0,0,7.35,13.4,18.56,18.56,0,0,0,15.71,4.3,19.06,19.06,0,0,0,11.71-7,21.3,21.3,0,0,0,4.67-10.7h-2a17.84,17.84,0,0,1-35.52,0ZM25,47h8.7c.52,0,.61-.15.36-.6a2,2,0,0,0-1.82-1.08H17.76a2,2,0,0,0-1.73,1,2.08,2.08,0,0,0-.19.58,2.4,2.4,0,0,0,.57.15Zm-.82-3.43h1.63V40.44H24.18Z"></path><path class="cls-1" d="M10.58,18.94A14.43,14.43,0,1,1,24.9,33.43,14.43,14.43,0,0,1,10.58,18.94Zm1.69.06A12.73,12.73,0,1,0,25,6.27,12.75,12.75,0,0,0,12.27,19Z"></path><path class="cls-1" d="M15.86,22.38c-.77,0-1.21-.63-.94-1.18a2.13,2.13,0,0,1,.42-.53L26.66,9.35A3.68,3.68,0,0,1,27,9a.79.79,0,0,1,1.1.05.8.8,0,0,1,.07,1.14,2.41,2.41,0,0,1-.21.24L16.46,22A4.18,4.18,0,0,1,15.86,22.38Z"></path><path class="cls-1" d="M22.56,10.45a3.77,3.77,0,0,1-.46.76c-1.62,1.64-3.26,3.28-4.9,4.91a.84.84,0,0,1-1.27.07A.83.83,0,0,1,16,14.93c1.64-1.66,3.29-3.3,4.94-4.95a.73.73,0,0,1,.95-.22A3.39,3.39,0,0,1,22.56,10.45Z"></path></svg> 