<?xml version="1.0" encoding="UTF-8"?> <svg xmlns="http://www.w3.org/2000/svg" id="Layer_1" data-name="Layer 1" width="50" height="50" viewBox="0 0 50 50"><defs><style>.cls-1{fill:#ec145b;}</style></defs><path class="cls-1" d="M49.24,45.5C48.38,41,47.49,36.41,46.63,32l-.69-3.55c-.16-.85-.33-1.71-.49-2.56-.29-1.48-.59-3-.88-4.51a3.28,3.28,0,0,0-3.45-2.88c-.89,0-1.78,0-2.69,0H37.18V17.9a1.86,1.86,0,0,0-.64-1.51.94.94,0,0,1-.2-.59A20.67,20.67,0,0,0,34.06,7,11.7,11.7,0,0,0,28.4,1.38,10.47,10.47,0,0,0,26.67.85l-.8-.2H24.13l-.81.21a10.84,10.84,0,0,0-1.76.54A11.6,11.6,0,0,0,15.94,7a20.32,20.32,0,0,0-2.27,8.8,1.1,1.1,0,0,1-.28.71,3.69,3.69,0,0,0-.55,1.18,1.37,1.37,0,0,0,0,.54c0,.09,0,.17,0,.26H11.26c-.81,0-1.64,0-2.46,0a3.27,3.27,0,0,0-3.37,2.81l-4.65,24a.69.69,0,0,1-.05.13l0,.07v1.18c.06.13.12.26.17.39a7.15,7.15,0,0,0,.4.84,3.41,3.41,0,0,0,2.22,1.45H46.53l.52-.23a4.1,4.1,0,0,0,1.11-.6A3,3,0,0,0,49.24,45.5ZM14.57,20.85V17.78h3.07v3.07Zm17.79,0V17.78h3.07v3.08Zm-19.54,0a1.65,1.65,0,0,0,1.73,1.76c1,0,2,0,3.09,0a1.65,1.65,0,0,0,1.74-1.79v-.6H30.62v.24c0,.2,0,.38,0,.58a1.6,1.6,0,0,0,1.53,1.55c1.1,0,2.26,0,3.46,0A1.63,1.63,0,0,0,37.18,21V20.2h4.11a1.53,1.53,0,0,1,1.55,1.25c.25,1.2.48,2.43.71,3.62.08.45.17.9.26,1.36v.11H6.17l.17-.88.33-1.72v0c.14-.77.3-1.56.45-2.34A1.56,1.56,0,0,1,8.77,20.2h4.05v.65Zm8-12.3a7.4,7.4,0,0,1,2-2.18,3.61,3.61,0,0,1,4.47,0,8.22,8.22,0,0,1,2.54,3.17,16,16,0,0,1,1.59,6.37.78.78,0,0,1-.14.41,1.3,1.3,0,0,0-.08.17l-.18.38a5.73,5.73,0,0,0-.33.81,1.32,1.32,0,0,0,0,.53c0,.08,0,.15,0,.23H19.38c0-.07,0-.15,0-.22a1.5,1.5,0,0,0,0-.56,7,7,0,0,0-.36-.85l-.16-.33a.91.91,0,0,0-.09-.17.6.6,0,0,1-.13-.32A15.44,15.44,0,0,1,20.78,8.55ZM34.6,16H33.15c0-.2,0-.41-.07-.62,0-.48-.09-1-.17-1.47a14.53,14.53,0,0,0-3.2-7.61A6.38,6.38,0,0,0,25.88,4a5.61,5.61,0,0,0-5.13,1.85A12.39,12.39,0,0,0,17.48,12c-.22.9-.36,1.8-.5,2.76-.07.41-.13.84-.21,1.26h-1.4l0-.45c0-.37,0-.73.08-1.09A17.06,17.06,0,0,1,18.57,6a8.56,8.56,0,0,1,4.19-3.22A7,7,0,0,1,30,4.41a13.34,13.34,0,0,1,3.94,7,25.24,25.24,0,0,1,.51,2.84l.15,1a2.41,2.41,0,0,1,0,.54Zm8.1,31.63H41.26c0-.34,0-.68,0-1,0-.86,0-1.67,0-2.5a1.34,1.34,0,0,1,1.22-1.18c1.07,0,2.16,0,3.22,0H47c.05.29.11.59.17.89.14.7.29,1.43.39,2.15a1.48,1.48,0,0,1-.33,1.15,1.32,1.32,0,0,1-1,.5C45.09,47.65,43.87,47.64,42.7,47.63ZM12,30.38a2.06,2.06,0,0,1-.62,1.72,3.94,3.94,0,0,0-.46,4.69,4.08,4.08,0,0,0,7.59-1.45,4,4,0,0,0-1.27-3.6.8.8,0,0,1-.3-.65c0-.68,0-1.34,0-2v-.74H44.18l2.49,12.84H42.86a3.21,3.21,0,0,0-3.34,3.33c0,.71,0,1.4,0,2.14v1h-29v-.77c0-.64,0-1.31,0-2a5.45,5.45,0,0,0-.12-1.28,3.15,3.15,0,0,0-3-2.41c-.82,0-1.65,0-2.46,0H3.33L5.82,28.32H12v.06c0,.09,0,.17,0,.24s0,.4,0,.6C12,29.6,12,30,12,30.38Zm2.49,6.72h0a2.4,2.4,0,0,1-2.38-2.38,2.37,2.37,0,0,1,.69-1.67,2.31,2.31,0,0,1,1.66-.7h0a2.41,2.41,0,0,1,1.69.69,2.35,2.35,0,0,1,.7,1.68A2.38,2.38,0,0,1,14.51,37.1Zm-.75-6.46V28.3h1.45v2.34Zm-5,13.55c0,.8,0,1.59,0,2.43v1H4.11a1.71,1.71,0,0,1-1.34-.56,1.73,1.73,0,0,1-.3-1.45c.13-.71.27-1.42.41-2.14L3,43l0,0,0,0H4.28c1,0,2.09,0,3.12,0A1.43,1.43,0,0,1,8.74,44.19Z"></path></svg> 