<?xml version="1.0" encoding="UTF-8"?> <svg xmlns="http://www.w3.org/2000/svg" id="Layer_1" data-name="Layer 1" width="50" height="50" viewBox="0 0 50 50"><defs><style>.cls-1{fill:#ec145b;}</style></defs><path class="cls-1" d="M32.05,33.53v-.7H14.8v.54c0,1.53,0,3.07,0,4.6a2.59,2.59,0,0,1-2.67,2.67c-2.66,0-5.33,0-8,0a2.58,2.58,0,0,1-2.68-2.7q0-8.28,0-16.57a2.59,2.59,0,0,1,2.69-2.69h6.7c0-.18,0-.34,0-.49V14.35a4.06,4.06,0,0,1,2.94-4.15l.17-.07a2.4,2.4,0,0,1,2.77-2.44h.93A2.38,2.38,0,0,1,20.32,10h12.5A2.25,2.25,0,0,1,34.7,7.77a8.65,8.65,0,0,1,2.59,0c1.11.16,1.73,1,1.86,2.35l.29.12A4,4,0,0,1,42.26,14c0,4.92,0,9.84,0,14.76a4,4,0,0,1-4,4c-.47,0-.95,0-1.45,0v.76c.62.12.76.56.75,1.15,0,2.16,0,4.32,0,6.48,0,.76-.27,1-1,1H32.26c-.7,0-1-.28-1-1V34.67C31.28,34,31.37,33.81,32.05,33.53Zm-1.72-11L40.7,20.39v-6a2.53,2.53,0,0,0-2.85-2.83H14.94a2.4,2.4,0,0,0-2.46,2.2c-.08,1.61,0,3.23,0,4.85a2.7,2.7,0,0,1,2.28,2.05c0,.11.24.2.38.23,1.53.34,3.06.65,4.6,1l3.09.65A2.65,2.65,0,0,1,25.52,21c.69,0,1.37,0,2.06,0A2.66,2.66,0,0,1,30.33,22.58ZM4.56,20.27C3.41,20.18,3,20.54,3,21.64V37.82c0,.87.38,1.26,1.25,1.26H12c.87,0,1.25-.39,1.25-1.27V21.53c0-1-.56-1.44-1.55-1.22A2.25,2.25,0,0,1,9.17,22.6h-2A2.29,2.29,0,0,1,4.56,20.27ZM14.83,22.5v8.71H32.06V29.68a1.53,1.53,0,0,1,.86-1.44,1.49,1.49,0,0,1,1.62.14c.36.26.7.55,1.06.79a2,2,0,0,1,1.17,2.06h1.31a2.49,2.49,0,0,0,2.61-2.63c0-1.73,0-3.46,0-5.2V22L30.49,24.15c0,.22,0,.4,0,.58a2.47,2.47,0,0,1-2.56,2.57c-.95,0-1.89,0-2.84,0a2.47,2.47,0,0,1-2.42-2.15,8.28,8.28,0,0,1,0-1ZM32.88,35.18v5.44H36V35.18ZM26.59,22.6H25.17a.91.91,0,0,0-1,1c0,.41,0,.82,0,1.22a.9.9,0,0,0,1,.95q1.39,0,2.79,0a.9.9,0,0,0,1-1c0-.4,0-.81,0-1.22a.91.91,0,0,0-1-.95C27.5,22.59,27.05,22.6,26.59,22.6Zm7.05,10.94H35.2V31c0-.08,0-.19-.06-.22-.47-.38-1-.74-1.5-1.16ZM10.07,20.27H6.19c0,.54.21.75.69.75q1.25,0,2.49,0C9.85,21,10,20.81,10.07,20.27ZM18.72,10A.76.76,0,0,0,18,9.26c-.54,0-1.07,0-1.61,0a.73.73,0,0,0-.75.76Zm15.7,0h3.14a.77.77,0,0,0-.81-.74H35.19A.74.74,0,0,0,34.42,10Z"></path><path class="cls-1" d="M43.84,41.43H40.11c-.71,0-1-.27-1-1,0-1.43,0-2.87,0-4.31,0-.71.27-1,1-1h7.46c.7,0,1,.27,1,1q0,2.16,0,4.32c0,.7-.27,1-1,1Zm-3.12-1.6h6.21V36.75H40.72Z"></path></svg> 