<?xml version="1.0" encoding="UTF-8"?> <svg xmlns="http://www.w3.org/2000/svg" id="Layer_1" data-name="Layer 1" width="50" height="50" viewBox="0 0 50 50"><defs><style>.cls-1{fill:#ec145b;}</style></defs><circle class="cls-1" cx="33.02" cy="29.78" r="0.9"></circle><path class="cls-1" d="M45.28,26.37a.75.75,0,0,1-.75-.75V6.18A2.54,2.54,0,0,0,42,3.65H38.66a2.54,2.54,0,0,0-2.54,2.53.75.75,0,0,1-1.5,0,4,4,0,0,1,4-4H42a4,4,0,0,1,4,4V25.62A.76.76,0,0,1,45.28,26.37Z"></path><path class="cls-1" d="M39.43,12.21H31.3V9.5a4.07,4.07,0,1,1,8.13,0Zm-6.63-1.5h5.13V9.5a2.57,2.57,0,1,0-5.13,0Z"></path><path class="cls-1" d="M29.66,30.53H25.13a.75.75,0,1,1,0-1.5h4.53a.75.75,0,0,1,0,1.5Z"></path><path class="cls-1" d="M45,30.53H36.3a.75.75,0,0,1,0-1.5H45a1.29,1.29,0,0,0,0-2.57H25A.75.75,0,0,1,25,25H45a2.79,2.79,0,0,1,0,5.57Z"></path><path class="cls-1" d="M12.92,30.53H5A2.79,2.79,0,0,1,5,25h8a.75.75,0,1,1,0,1.5H5A1.29,1.29,0,0,0,5,29h7.94a.75.75,0,1,1,0,1.5Z"></path><path class="cls-1" d="M34.88,45.17H15.37A11.16,11.16,0,0,1,4.23,34V29.78a.75.75,0,0,1,1.5,0V34a9.66,9.66,0,0,0,9.64,9.64H34.88A9.66,9.66,0,0,0,44.53,34V29.78a.75.75,0,0,1,1.5,0V34A11.16,11.16,0,0,1,34.88,45.17Z"></path><path class="cls-1" d="M25.75,37.85H12.37v-12a2,2,0,0,1,2-2h9.39a2,2,0,0,1,2,2Zm-11.88-1.5H24.25V25.85a.5.5,0,0,0-.5-.5H14.36a.49.49,0,0,0-.49.5Z"></path><path class="cls-1" d="M7.47,48A2.89,2.89,0,0,1,4.94,43.7l1.83-3.33a.75.75,0,0,1,1.32.72L6.26,44.42a1.4,1.4,0,0,0,2.42,1.39l1.65-2.75a.75.75,0,1,1,1.28.77L10,46.58A2.9,2.9,0,0,1,7.47,48Z"></path><path class="cls-1" d="M42.84,48a2.92,2.92,0,0,1-2.5-1.41l-1.65-2.75a.76.76,0,0,1,.26-1,.75.75,0,0,1,1,.26l1.65,2.75a1.4,1.4,0,0,0,2.42-1.39l-1.83-3.33a.75.75,0,0,1,.29-1,.75.75,0,0,1,1,.3l1.83,3.33A2.89,2.89,0,0,1,42.84,48Z"></path></svg> 