<?xml version="1.0" encoding="UTF-8"?> <svg xmlns="http://www.w3.org/2000/svg" id="Layer_1" data-name="Layer 1" width="50" height="50" viewBox="0 0 50 50"><defs><style>.cls-1{fill:#ec145b;}</style></defs><path class="cls-1" d="M48.94,30.65a2.35,2.35,0,0,1-2.68,1.67,5.23,5.23,0,0,0-.56,0l-.15,0c0,.14,0,.31,0,.47,0,1.21.06,2.43.11,3.64a.53.53,0,0,1-.34.58c-1.61.85-3.2,1.73-4.81,2.58a1.89,1.89,0,0,0-.81.8c-.84,1.61-1.72,3.2-2.58,4.81a.56.56,0,0,1-.61.36c-1.87-.07-3.74-.13-5.61-.17a1.5,1.5,0,0,0-.77.22q-2.4,1.44-4.78,2.94a.57.57,0,0,1-.7,0q-2.4-1.5-4.81-3a1.44,1.44,0,0,0-.7-.19c-1.88,0-3.77.1-5.65.17a.56.56,0,0,1-.61-.36C12,43.6,11.12,42,10.21,40.32a1.55,1.55,0,0,0-.6-.59C8,38.82,6.33,37.94,4.68,37.06a.53.53,0,0,1-.34-.58c0-1.21.08-2.43.11-3.64,0-.15,0-.31,0-.52H3.28a2.11,2.11,0,0,1-2.21-2.21c0-3.44,0-6.89,0-10.33a2.1,2.1,0,0,1,2.21-2.2H4.45c0-.2,0-.36,0-.53,0-1.21-.06-2.43-.11-3.64a.55.55,0,0,1,.34-.58C6.31,12,8,11.09,9.56,10.19a1.77,1.77,0,0,0,.67-.66q1.35-2.43,2.65-4.89a.55.55,0,0,1,.61-.35c1.88.07,3.77.12,5.65.16a1.31,1.31,0,0,0,.7-.18q2.41-1.47,4.81-3a.56.56,0,0,1,.7,0q2.38,1.49,4.78,2.94a1.49,1.49,0,0,0,.77.21c1.87,0,3.74-.09,5.61-.16a.55.55,0,0,1,.61.35c.85,1.6,1.72,3.18,2.56,4.77a1.91,1.91,0,0,0,.87.86c1.6.84,3.18,1.72,4.77,2.56a.55.55,0,0,1,.34.58c0,1.21-.08,2.43-.11,3.64v.54c1.46-.12,2.83,0,3.39,1.65Zm-21.81.27H46.55c.76,0,1-.22,1-1v-10c0-.74-.23-1-1-1H3.45c-.77,0-1,.22-1,1v9.86c0,.88.19,1.07,1.07,1.07H22.86v1.4H10.69A16,16,0,0,0,26.28,41a15.87,15.87,0,0,0,13-8.73H27.13ZM44.22,17.57c0-1.13,0-2.2,0-3.27a.62.62,0,0,0-.41-.68c-1.51-.8-3-1.62-4.51-2.44a1.47,1.47,0,0,1-.54-.54q-1.26-2.28-2.46-4.56a.57.57,0,0,0-.62-.36c-1.71.06-3.42.12-5.14.14a1.75,1.75,0,0,1-.86-.25c-1.46-.87-2.9-1.76-4.34-2.66a.56.56,0,0,0-.7,0c-1.45.92-2.91,1.81-4.38,2.7a1.52,1.52,0,0,1-.78.21c-1.73,0-3.45-.08-5.18-.14a.55.55,0,0,0-.61.36c-.81,1.52-1.63,3.05-2.47,4.56a1.47,1.47,0,0,1-.54.54C9.17,12,7.63,12.84,6.1,13.66a.51.51,0,0,0-.33.54c.05.73.05,1.47.07,2.2,0,.38,0,.76,0,1.18,1,0,1.94,0,2.86,0a.57.57,0,0,0,.57-.35c.77-1.22,1.52-2.46,2.38-3.62a13.6,13.6,0,0,1,3.11-2.89l.41.55.4.58a16.33,16.33,0,0,0-4.9,5.7h28.6c-.68-2.19-4-5.57-7.09-7a16.15,16.15,0,0,0-15.49.56L16,9.92a3.77,3.77,0,0,1,.41-.25A17.22,17.22,0,0,1,32.48,9.1a17.09,17.09,0,0,1,8.25,8.08c.08.16.25.37.38.38C42.09,17.59,43.07,17.57,44.22,17.57ZM5.79,32.32c0,1.15,0,2.22,0,3.29a.62.62,0,0,0,.38.65c1.51.8,3,1.61,4.51,2.45a1.57,1.57,0,0,1,.6.6q1.24,2.25,2.44,4.52a.55.55,0,0,0,.62.34c1.75-.06,3.49-.11,5.23-.14a1.32,1.32,0,0,1,.65.18c1.48.89,3,1.79,4.42,2.72a.66.66,0,0,0,.79,0c1.45-.92,2.91-1.81,4.37-2.7a1.4,1.4,0,0,1,.69-.19c1.73,0,3.46.08,5.19.14a.58.58,0,0,0,.65-.36c.79-1.49,1.58-3,2.4-4.44a2,2,0,0,1,.7-.7c1.28-.73,2.56-1.47,3.9-2.1a1.3,1.3,0,0,0,.9-1.55,24.21,24.21,0,0,1,0-2.7c-1,0-1.88,0-2.76,0a.69.69,0,0,0-.75.45A17.53,17.53,0,0,1,9.27,32.7c-.08-.15-.26-.36-.39-.36C7.9,32.3,6.92,32.32,5.79,32.32Z"></path><path class="cls-1" d="M30.28,21.49c1-.34,1.49.08,1.93.88.59,1.08,1.29,2.09,2,3.24V21.43h1.4v7a11.71,11.71,0,0,1-1.18,0c-.12,0-.26-.2-.34-.33l-2.44-3.87v4.28H30.28Z"></path><path class="cls-1" d="M6.45,28.47v-7a19.73,19.73,0,0,1,2.67,0,1.93,1.93,0,0,1,1.5,2.71.47.47,0,0,0,.11.6,2.13,2.13,0,0,1,.36,2.39,2.1,2.1,0,0,1-2,1.32c-.81,0-1.62,0-2.43,0Zm1.41-1.38c.44,0,.85,0,1.25,0a.82.82,0,0,0,0-1.64c-.42,0-.84,0-1.28,0Zm0-3.07c.34,0,.65,0,1,0a.59.59,0,0,0,.07-1.18,8.63,8.63,0,0,0-1,0Z"></path><path class="cls-1" d="M16.91,25.71l1.7,2-1.06.91-2.1-2.48v2.31H14.07V21.35a20.34,20.34,0,0,1,2.94.23,1.88,1.88,0,0,1,1.47,1.84,2.06,2.06,0,0,1-1.15,2.07l-.21.1Zm-1.43-2.89v1.56c.55,0,1.14.14,1.47-.41a.9.9,0,0,0,0-.77C16.61,22.65,16,22.82,15.48,22.82Z"></path><path class="cls-1" d="M38.41,21.41c.85,0,1.67-.05,2.47,0a2.6,2.6,0,0,1,2.34,1.68,4.23,4.23,0,0,1,0,3.45,2.71,2.71,0,0,1-2.67,1.76H38.41Zm1.4,1.41v4.06c.78.07,1.55.13,2-.66a2.68,2.68,0,0,0,0-2.76C41.37,22.67,40.58,22.78,39.81,22.82Z"></path><path class="cls-1" d="M27.47,28.12l-1.31.5c-.17-.46-.32-.9-.52-1.32a.56.56,0,0,0-.38-.28c-.63,0-1.25,0-1.87,0a.56.56,0,0,0-.39.28c-.19.41-.34.83-.52,1.31l-1.3-.49c.15-.41.3-.8.45-1.18.65-1.72,1.31-3.43,1.95-5.15a.49.49,0,0,1,.56-.39c.78,0,.78,0,1.07.74C26,24.12,26.7,26.09,27.47,28.12ZM25,25.59l-.68-1.81-.69,1.81Z"></path><path class="cls-1" d="M24.34,30.93h1.33v1.36H24.34Z"></path><path class="cls-1" d="M30.59,11.65V13H29.24V11.65Z"></path><path class="cls-1" d="M33.4,13.05V14.4H32V13.05Z"></path></svg> 