<?xml version="1.0" encoding="UTF-8"?> <svg xmlns="http://www.w3.org/2000/svg" id="Layer_1" data-name="Layer 1" width="50" height="50" viewBox="0 0 50 50"><defs><style>.cls-1{fill:#ec145b;}</style></defs><path class="cls-1" d="M18.34,49.38a1.64,1.64,0,0,1-1-1.71c0-2.54,0-5.07,0-7.61a1.62,1.62,0,0,0-.31-.89c-.68-1-1.4-1.88-2.12-2.8a3.51,3.51,0,0,1-.78-2.52c.2-2.65.4-5.31.61-8l.72-9.14.42-5.35c0-.11,0-.22,0-.33a.71.71,0,0,1,.78-.66.73.73,0,0,1,.63.82c-.09,1.21-.19,2.43-.29,3.64L16.34,24c-.24,3.07-.46,6.13-.74,9.19a3.35,3.35,0,0,0,.77,2.72c.66.75,1.21,1.59,1.84,2.37a.91.91,0,0,0,.61.31q6.18,0,12.35,0a.85.85,0,0,0,.58-.28c.74-.93,1.44-1.89,2.17-2.83a2.18,2.18,0,0,0,.49-1.59c-.21-2.65-.41-5.3-.62-8l-.72-9.14c-.27-3.47-.55-6.94-.82-10.41C32.15,5.12,32,3.86,32,2.6c0-.34-.14-.47-.49-.47h-13c-.32,0-.45.09-.47.42-.11,1.52-.24,3-.36,4.55,0,.23,0,.47-.07.71a.7.7,0,0,1-.79.69.73.73,0,0,1-.61-.87l.15-2.08c.09-1.11.18-2.21.28-3.32A1.62,1.62,0,0,1,18.23.72q6.76,0,13.54,0a1.62,1.62,0,0,1,1.58,1.49c.26,3.24.51,6.47.77,9.71q.45,5.78.91,11.55c.23,3,.47,6,.7,9a.76.76,0,0,0,0,.15,5.05,5.05,0,0,1-1.43,4.74c-.44.47-.77,1-1.2,1.53a2.13,2.13,0,0,0-.52,1.51c0,2.42,0,4.84,0,7.27a1.63,1.63,0,0,1-1,1.71H27.56c-.29-.26-.54-.55-.37-1s.56-.46,1-.45h3V46.34H18.83V48h5.39c.41,0,.77.06.92.49s-.1.71-.44.94Zm12.84-9.3H18.83v4.77h3.22a3.75,3.75,0,0,1,.55-2.44,2.87,2.87,0,0,1,2.11-1.22,2.82,2.82,0,0,1,2,.52,3.23,3.23,0,0,1,1.24,3.13h3.26V40.08Zm-7.67,4.8h2.58l.38,0a1.87,1.87,0,0,0-.66-2,1.39,1.39,0,0,0-1.57,0C23.46,43.27,23.42,44,23.51,44.88Z"></path><path class="cls-1" d="M25,22.51a5.44,5.44,0,1,1,5.42-5.45A5.42,5.42,0,0,1,25,22.51Zm0-1.43a4,4,0,1,0-4-4A4,4,0,0,0,25,21.08Z"></path><path class="cls-1" d="M25,25.11h2.65c.59,0,.93.28.92.72s-.34.7-.94.71H22.3c-.6,0-.93-.27-.92-.72s.33-.69.89-.7Z"></path><path class="cls-1" d="M25,27.7h1.66a.71.71,0,1,1,0,1.42c-1.14,0-2.28,0-3.41,0a.72.72,0,0,1-.75-.75.72.72,0,0,1,.77-.67Z"></path></svg> 