<?xml version="1.0" encoding="UTF-8"?> <svg xmlns="http://www.w3.org/2000/svg" id="Layer_1" data-name="Layer 1" width="50" height="50" viewBox="0 0 50 50"><defs><style>.cls-1{fill:#ec145b;}</style></defs><path class="cls-1" d="M47.57,25A.8.8,0,1,0,46,25c0,3.94-4,6.5-5.22,7.18-.92-.52-1.84-1-2.76-1.4,1.87-1.21,4.91-3.79,5.26-7.92a.8.8,0,0,0-.73-.86.81.81,0,0,0-.87.73c-.35,4.28-4.4,6.69-5.5,7.27-.8-.31-1.6-.59-2.4-.83a11.22,11.22,0,0,0,4.31-7.75.81.81,0,0,0-.73-.87.8.8,0,0,0-.86.73,10.14,10.14,0,0,1-4.7,7.34c-1-.26-2.07-.47-3.1-.63a12.08,12.08,0,0,0,4.16-7.4.8.8,0,0,0-1.58-.24,10.86,10.86,0,0,1-4.87,7.35c-.92-.09-1.83-.15-2.73-.17a12,12,0,0,0,3.44-6.94.8.8,0,1,0-1.58-.24,9.93,9.93,0,0,1-4.43,7.19,48.71,48.71,0,0,0-15.7,3.26,24,24,0,0,1,17.36-7.53.8.8,0,1,0,0-1.6c-12.9,0-20.23,9.45-21.22,10.89h0l.4.71A22.43,22.43,0,0,0,21.08,43.91c12.25,0,19.2-8.87,20.21-10.25C42.35,33.11,47.57,30.11,47.57,25Zm-31,4.52A41.23,41.23,0,0,1,26,29.22a.8.8,0,0,0,.43.13.74.74,0,0,0,.14,0,6.09,6.09,0,1,1-10,.16Zm4.5,12.84a21.18,21.18,0,0,1-17.3-9.15A47.24,47.24,0,0,1,14.6,29.79a7.69,7.69,0,1,0,14.74,3.05,7.58,7.58,0,0,0-.74-3.29,34.53,34.53,0,0,1,10.95,3.73C37.72,35.51,31.28,42.31,21.08,42.31Z"></path><path class="cls-1" d="M4.53,19.25a2.86,2.86,0,0,0,3.62,1c23.32-11.39,38.42.44,38.57.56l1.94,1.57L48,19.94c0-.15-1.1-3.87-3.77-5.64C27.92,2.88,7,14.14,6.79,14.26l-.09.06C3.43,16.79,4.21,18.72,4.53,19.25Zm3.08-3.62C8.73,15,28.2,5,43.32,15.63a7,7,0,0,1,2.13,2.44c-5.21-3-19-8.55-38,.71a1.3,1.3,0,0,1-1.57-.35C5.62,18,5.9,16.94,7.61,15.63Z"></path><path class="cls-1" d="M21.65,36.09a3.26,3.26,0,1,0-3.25-3.25A3.26,3.26,0,0,0,21.65,36.09Zm0-4.91A1.66,1.66,0,1,1,20,32.84,1.66,1.66,0,0,1,21.65,31.18Z"></path><path class="cls-1" d="M46.51,43.26a3.25,3.25,0,1,0,3.25,3.25A3.26,3.26,0,0,0,46.51,43.26Zm0,4.9a1.65,1.65,0,1,1,1.65-1.65A1.65,1.65,0,0,1,46.51,48.16Z"></path><path class="cls-1" d="M6.74,3.49A3.25,3.25,0,1,0,3.49,6.74,3.26,3.26,0,0,0,6.74,3.49Zm-4.9,0A1.65,1.65,0,1,1,3.49,5.14,1.65,1.65,0,0,1,1.84,3.49Z"></path></svg> 