<?xml version="1.0" encoding="UTF-8"?> <svg xmlns="http://www.w3.org/2000/svg" id="Layer_1" data-name="Layer 1" width="50" height="50" viewBox="0 0 50 50"><defs><style>.cls-1{fill:#ec145b;}</style></defs><path class="cls-1" d="M27.89,41.71a15.64,15.64,0,0,1-12,2.68A16.36,16.36,0,0,1,2.46,26.57,16.39,16.39,0,0,1,20.77,12.09a15.48,15.48,0,0,1,7.13,2.75c.55.37,1,.35,1.32-.07a.72.72,0,0,0,.14-.57,1.13,1.13,0,0,0-.57-.7c-.5-.32-1-.62-1.52-.91l-.7-.4-.22-.14,0,0h3.54c1,0,2.08,0,3.11-.07a3.89,3.89,0,0,0,2.7-1.47,4.1,4.1,0,0,0-3.27-6.74H15.17c-3.37,0-6.85,0-10.27,0A4.14,4.14,0,0,0,.78,7.6,4.08,4.08,0,0,0,4.55,12a23.89,23.89,0,0,0,2.39,0H11v0l-.11.06-.58.31A18,18,0,0,0,1.1,31.87,17.95,17.95,0,0,0,18.52,46.25h.22A16.79,16.79,0,0,0,28.82,43a1,1,0,0,0,.46-.67.72.72,0,0,0-.15-.56C28.82,41.39,28.38,41.37,27.89,41.71ZM2.87,6.38a2.6,2.6,0,0,1,1.91-1H32.27a2.61,2.61,0,0,1,2.61,1.72,2.44,2.44,0,0,1-.33,2.22,2.62,2.62,0,0,1-2.08,1.11H5a2.55,2.55,0,0,1-2.54-2A2.47,2.47,0,0,1,2.87,6.38Z"></path><path class="cls-1" d="M35.75,14.79h0A13.54,13.54,0,0,0,22.24,28.32a13.52,13.52,0,0,0,13.5,13.54h0a13.54,13.54,0,0,0,0-27.07Zm11.91,13.5a12,12,0,0,1-11.9,12h0A11.92,11.92,0,0,1,23.86,28.32a11.93,11.93,0,0,1,11.88-11.9h0A11.94,11.94,0,0,1,47.66,28.29Z"></path><path class="cls-1" d="M14.33,17.14a12,12,0,0,1,9.77.5,1.25,1.25,0,0,0,.92.15.8.8,0,0,0,.41-.4c.22-.46,0-.88-.58-1.18A13.14,13.14,0,0,0,17,14.82a13.56,13.56,0,0,0,1.6,27h0l.78-.08c.58-.06,1.19-.12,1.78-.21A12.48,12.48,0,0,0,25,40.22a.79.79,0,0,0,.48-.89.71.71,0,0,0-.71-.65h0a1.6,1.6,0,0,0-.69.21,12.18,12.18,0,0,1-6.64,1.22,11.93,11.93,0,0,1-3.11-23Z"></path></svg> 