<?xml version="1.0" encoding="UTF-8"?> <svg xmlns="http://www.w3.org/2000/svg" id="Layer_1" data-name="Layer 1" width="50" height="50" viewBox="0 0 50 50"><defs><style>.cls-1{fill:#ec145b;}</style></defs><path class="cls-1" d="M9.67,46.48a13.3,13.3,0,0,0,8-2.95,28.06,28.06,0,0,0,4.22-4.22,17.16,17.16,0,0,1,6.3-5,14.85,14.85,0,0,1,4.71-1,6.52,6.52,0,0,0,5.57-3.73,9.05,9.05,0,0,0,1-3.59,2.76,2.76,0,0,0-1.45-2.79,5.16,5.16,0,0,1-2-6.16,7,7,0,0,1,1-2c3-4.22,6.1-8.43,9.16-12.64a2.15,2.15,0,0,1,.18-.24.79.79,0,0,1,1.11-.14.81.81,0,0,1,.21,1.1,4.28,4.28,0,0,1-.26.38l-9,12.34a4.67,4.67,0,0,0-.91,4,2.75,2.75,0,0,0,1.39,1.9c1.94,1,2.4,2.72,2.18,4.71a10.45,10.45,0,0,1-1.56,4.65,7.68,7.68,0,0,1-6.1,3.75c-4.09.12-7.16,2-9.8,4.86-1.32,1.46-2.62,3-4.07,4.3a14.43,14.43,0,0,1-8,3.84,14.61,14.61,0,0,1-7.68-1,2.39,2.39,0,0,1-1.65-2.8,2.44,2.44,0,0,1,1.3-1.64c1.87-1.11,3.73-2.24,5.6-3.37L9.33,39a9.21,9.21,0,0,0,3.85-4.47,51.59,51.59,0,0,1,4.73-9,21.22,21.22,0,0,1,3.51-4.17,5.36,5.36,0,0,0,1.49-2.25q3-8.18,6-16.34a2.46,2.46,0,0,1,.2-.47.76.76,0,0,1,1-.35.76.76,0,0,1,.51.94,7.07,7.07,0,0,1-.24.74q-2.94,8-5.86,16a6.66,6.66,0,0,1-1.69,2.68,26.08,26.08,0,0,0-5.54,7.56c-1.07,2.09-2.1,4.21-3.06,6.35a7.52,7.52,0,0,1-2.34,3,52.32,52.32,0,0,1-6.94,4.43,3.14,3.14,0,0,0-.62.36c-.18.18-.41.45-.38.65a.86.86,0,0,0,.48.63c1.19.38,2.39.73,3.61,1A10.41,10.41,0,0,0,9.67,46.48Z"></path><path class="cls-1" d="M24.24,28.58c1.2.15,1.5.33,1.52.86s-.26.71-1.52.9c0,.41,0,.83,0,1.25s-.33.93-.81.93a.86.86,0,0,1-.84-.92c0-.43,0-.85,0-1.3-.66-.05-1.42.11-1.49-.82-.05-.54.25-.72,1.49-.91,0-.4,0-.81,0-1.22,0-.59.35-.94.87-.93s.77.36.78.95C24.25,27.76,24.24,28.15,24.24,28.58Z"></path><path class="cls-1" d="M5.43,25c0-.44,0-.85,0-1.26a.84.84,0,0,1,.82-.92c.47,0,.8.36.83.93,0,.21,0,.41,0,.62V25c.66.08,1.53-.1,1.47.92s-.82.73-1.47.8v1.13c0,.67-.3,1-.82,1s-.82-.34-.83-1V26.76c-.66-.07-1.45.09-1.51-.87C3.89,25.36,4.17,25.2,5.43,25Z"></path><path class="cls-1" d="M5.56,8.46C6.72,8.55,7,8.73,7,9.29s-.31.79-1.48.89c0,.4,0,.8,0,1.21,0,.61-.32,1-.84,1s-.8-.36-.81-1V10.21c-1.23-.21-1.52-.39-1.5-.93s.34-.73,1.5-.82V7.2a.85.85,0,0,1,.8-1c.49,0,.84.37.85,1C5.57,7.61,5.56,8,5.56,8.46Z"></path><path class="cls-1" d="M16.5,17.31c0,.45,0,.88,0,1.3a.82.82,0,1,1-1.64,0c0-.43,0-.85,0-1.32-.66-.06-1.51.1-1.46-.91s.83-.74,1.46-.79c0-.45,0-.87,0-1.3a.82.82,0,1,1,1.64,0c0,.42,0,.84,0,1.26,1.23.2,1.52.38,1.5.92S17.65,17.23,16.5,17.31Z"></path><path class="cls-1" d="M16.1,6.86A1.11,1.11,0,0,1,17.21,8a1.13,1.13,0,0,1-1.1,1.11,1.11,1.11,0,0,1,0-2.21Z"></path><path class="cls-1" d="M7.93,18.25A1.12,1.12,0,0,1,5.7,18.2a1.12,1.12,0,0,1,2.23.05Z"></path><path class="cls-1" d="M4.72,35a1.14,1.14,0,0,1-1.1,1.13A1.12,1.12,0,0,1,2.52,35,1.1,1.1,0,1,1,4.72,35Z"></path></svg> 