<?xml version="1.0" encoding="UTF-8"?> <svg xmlns="http://www.w3.org/2000/svg" id="Layer_1" data-name="Layer 1" width="50" height="50" viewBox="0 0 50 50"><defs><style>.cls-1{fill:#ec145b;}</style></defs><path class="cls-1" d="M.66,30a4.2,4.2,0,0,1,.78-.57,16.74,16.74,0,0,0,8.88-7.85A18.74,18.74,0,0,0,12,15.71c.25-1.72.33-3.48.68-5.17a12.67,12.67,0,0,1,24.85.68c.26,1.48.28,3,.55,4.48s.74,3.1,1.12,4.64a4.17,4.17,0,0,0,.2.48,5.1,5.1,0,0,0,1-2.57c0-.22,0-.44.05-.66,0-.46.32-.75.71-.74s.65.28.71.74A10.08,10.08,0,0,0,42,18.82a4.32,4.32,0,0,0,3,3.45,4.68,4.68,0,0,0,.75.11c.54.07.81.32.8.75s-.28.66-.81.69a4,4,0,0,0-3.12,1.93,1.43,1.43,0,0,1,.36.2,17.59,17.59,0,0,0,5.58,3.44c.78.3.9.72.43,1.38A5.3,5.3,0,0,1,43.47,33a5.08,5.08,0,0,1-2.69,4.66,9.55,9.55,0,0,1,1.36,3.42,13.82,13.82,0,0,1,.2,2c0,1.75,0,3.51,0,5.27a1.16,1.16,0,0,1-.44.94H8.08a1.23,1.23,0,0,1-.44-1.08c0-1.65,0-3.29,0-4.94a13.21,13.21,0,0,1,.1-1.66,9.73,9.73,0,0,1,1.45-4C7.16,36.15,7,35.87,6.51,33A5.25,5.25,0,0,1,1,30.78c-.09-.12-.2-.24-.3-.36ZM16.44,16.38c-.36,0-.66,0-1-.06-.51-.06-.79-.37-.75-.8s.36-.62.86-.61,1.3,0,1.95,0a6.85,6.85,0,0,0,6.68-5.14c.11-.4.29-.68.72-.68s.63.31.74.72a6.46,6.46,0,0,0,3.85,4.47,10.44,10.44,0,0,0,4.76.62c.52,0,.85.23.87.65s-.26.7-.75.76c-.31,0-.62.05-.95.07v.89A35.64,35.64,0,0,1,33.3,21a9.06,9.06,0,0,1-3.61,5.84c-.16.12-.36.32-.37.49a8.8,8.8,0,0,0,.35,3.57A1.39,1.39,0,0,0,30.78,32c.28,0,.53.2.81.25a.58.58,0,0,0,.47-.11A1.75,1.75,0,0,1,34,31.66c.66.21,1.33.4,2,.62a1.68,1.68,0,0,1,1.3,1.8.55.55,0,0,0,.18.38c.83.65,1.67,1.29,2.58,2a5.7,5.7,0,0,0,.5-.29,3.48,3.48,0,0,0,1.32-3.94c-.1-.35-.13-.72.2-.89a1.85,1.85,0,0,1,.88,0c.12,0,.23.1.35.15a3.65,3.65,0,0,0,4.15-1A19.82,19.82,0,0,1,42.06,27c-.07.64-.12,1.14-.18,1.64s-.33.74-.72.74-.65-.28-.71-.74a8.82,8.82,0,0,0-.16-1.27,4.32,4.32,0,0,0-3.07-3.42,8.67,8.67,0,0,0-.89-.13.65.65,0,0,1-.61-.72.64.64,0,0,1,.6-.67,5.22,5.22,0,0,0,.57-.07c.46-.12.91-.27,1.38-.42a24.23,24.23,0,0,1-1.78-7c-.18-1.35-.23-2.73-.53-4a11.24,11.24,0,0,0-22.09.84c-.23,1.74-.4,3.49-.67,5.23A16.66,16.66,0,0,1,5.72,28.72c-1,.67-2.06,1.21-3.14,1.84a7,7,0,0,0,.8.61,3.68,3.68,0,0,0,3.67.12.76.76,0,0,1,.93,0,.75.75,0,0,1,.18.91.69.69,0,0,0-.05.13A3.4,3.4,0,0,0,10,36.42c.89-.68,1.72-1.3,2.53-2a.67.67,0,0,0,.2-.46,1.66,1.66,0,0,1,1.19-1.69c.75-.25,1.51-.48,2.26-.7a1.38,1.38,0,0,1,1.47.31.9.9,0,0,0,1.23.19,1.7,1.7,0,0,1,.45-.15,1.18,1.18,0,0,0,.92-.85A8.75,8.75,0,0,0,20.73,28a1.29,1.29,0,0,0-.56-1.18,9,9,0,0,1-3.73-7.63C16.46,18.27,16.44,17.35,16.44,16.38ZM36.17,47.89v-.53c0-1-.05-2,0-3A5.36,5.36,0,0,0,35.34,41,3.4,3.4,0,0,1,35,38.38c.29-1.4.54-2.8.83-4.19.07-.35,0-.5-.34-.59-.55-.15-1.09-.33-1.64-.5s-.6-.18-.81.4c-.6,1.64-1.18,3.28-1.8,4.9a1.75,1.75,0,0,1-.65.75c-.66.42-1.37.79-2.07,1.16a7,7,0,0,1-6.91,0c-.71-.38-1.43-.75-2.11-1.18a1.64,1.64,0,0,1-.64-.76c-.65-1.66-1.25-3.35-1.85-5-.11-.31-.24-.43-.59-.31-.6.21-1.21.39-1.82.55-.32.09-.41.25-.33.59.27,1.3.5,2.61.78,3.91a4.06,4.06,0,0,1-.49,3.19c-.07.12-.12.26-.2.37a3.26,3.26,0,0,0-.49,1.9c0,1.27,0,2.54,0,3.8v.53Zm-11.23-36a8.46,8.46,0,0,1-7.07,4.45v3.17a7.25,7.25,0,0,0,1.82,4.87,11.12,11.12,0,0,0,4.57,3.13,1.68,1.68,0,0,0,1.39,0,20.4,20.4,0,0,0,2-1,8.61,8.61,0,0,0,4.09-4.93c.52-1.72.22-3.48.31-5.25A8.47,8.47,0,0,1,24.94,11.89ZM22.15,28c0,.36,0,.55,0,.74a7.37,7.37,0,0,1-.95,3.63,1.66,1.66,0,0,1-1,.8c-.52.14-1,.34-1.56.53.25.69.46,1.34.71,2a7.19,7.19,0,0,0,1,2.25,7.11,7.11,0,0,0,2.17,1.24,5.51,5.51,0,0,0,5.16-.06c.49-.24,1-.56,1.46-.78a1.85,1.85,0,0,0,1.08-1.26c.36-1.13.79-2.23,1.2-3.37a8.57,8.57,0,0,0-1.15-.38,2.43,2.43,0,0,1-1.85-1.78,4.07,4.07,0,0,1-.25-.82c-.14-.86-.25-1.73-.38-2.68A4.47,4.47,0,0,1,22.15,28ZM9.08,47.88H12.4c0-1.2,0-2.38,0-3.54a6.42,6.42,0,0,1,1-4,2,2,0,0,0,.31-1.21c-.13-1.1-.38-2.18-.59-3.35a8.38,8.38,0,0,0-3.86,5.72,19.05,19.05,0,0,0-.16,2.93C9.06,45.59,9.08,46.72,9.08,47.88Zm31.82,0c0-1.79,0-3.53,0-5.27a7.9,7.9,0,0,0-1.27-4.07,8.13,8.13,0,0,0-2.72-2.72c-.15.78-.24,1.51-.44,2.22a3.21,3.21,0,0,0,.42,2.85,4.49,4.49,0,0,1,.72,2.75c0,1.14,0,2.28,0,3.42v.82ZM39.1,23.05l2.06,2.26,2-2.2-2.05-2.28c-.28.37-.56.82-.91,1.2A12.86,12.86,0,0,1,39.1,23.05Z"></path><path class="cls-1" d="M.66,8.09c.25-.15.5-.41.75-.41a3.32,3.32,0,0,0,3-2.85,8.65,8.65,0,0,0,.1-.89.72.72,0,0,1,.69-.71c.4,0,.65.27.74.71a8.27,8.27,0,0,0,.51,2A2.86,2.86,0,0,0,9,7.66a.7.7,0,0,1,.74.71A.71.71,0,0,1,9,9.08a3.44,3.44,0,0,0-3.1,3.48c0,.08,0,.16,0,.24a.71.71,0,0,1-.73.71.72.72,0,0,1-.69-.71,7.09,7.09,0,0,0-.19-1.21A3.18,3.18,0,0,0,1.41,9.07c-.26,0-.5-.27-.75-.41Zm5.91.28L5.18,6.84,3.79,8.37,5.18,9.9Z"></path><path class="cls-1" d="M24.94,44.91a15.26,15.26,0,0,1-5.51-1c-.49-.18-.7-.55-.56-.94s.53-.59,1.06-.39a13.13,13.13,0,0,0,6.1.89c1.24-.15,2.47-.51,3.7-.77a2.74,2.74,0,0,0,.4-.15.74.74,0,0,1,1,.43.73.73,0,0,1-.53.92A15.51,15.51,0,0,1,24.94,44.91Z"></path></svg> 