<?xml version="1.0" encoding="UTF-8"?> <svg xmlns="http://www.w3.org/2000/svg" id="Layer_1" data-name="Layer 1" width="200" height="100" viewBox="0 0 200 100"><defs><style>.cls-1{fill:#fff;}.cls-2{fill:#bbbcbe;}.cls-3{fill:#a5a2a4;}.cls-4,.cls-5,.cls-8{fill:none;}.cls-4{stroke:#bdbbbc;stroke-linecap:round;}.cls-4,.cls-5{stroke-miterlimit:10;}.cls-5{stroke:#a5a2a4;}.cls-6{fill:#8e8d8d;}.cls-7{fill:#ec145b;}</style></defs><path d="M123.07,32.75a3.2,3.2,0,0,0-1.52-1.84c-1.24-.69-3.68-2.73-3.68-7.46a6,6,0,0,1,5.2-6.33c1.58-.21,1.55,1,4.65,1s2.73,2.65,3.91,4.39,3.29,5.28,5.86,5.44,6.54.39,9.59-1.82,3.7-3.73,6-3.81,4.39,3.21,5,5.7,1.63,6.81,2.87,8.07,4,4.18,7.67-.5c0,0-.71,5.19-5,5.19s-7.52-4.19-8.58-5.53-4.38-6.45-11.51-1.6c0,0,6.92-.74,8.86,6.14a8.41,8.41,0,0,0-8.82-3.31c-5.73,1.39-10.22,2.42-16.82-1A6.21,6.21,0,0,1,123.07,32.75Z"></path><path class="cls-1" d="M135.13,28.54A11.16,11.16,0,0,0,148,26.47S140.65,34.71,135.13,28.54Z"></path><path class="cls-1" d="M151.37,23.91s2.74-2.26,4.15,1.58A3.58,3.58,0,0,0,151.37,23.91Z"></path><path class="cls-1" d="M129.85,33.8s3,1.68,7.88.63C137.73,34.43,133.18,37.31,129.85,33.8Z"></path><path class="cls-2" d="M134,61.35A21.55,21.55,0,1,1,112.45,39.8,21.55,21.55,0,0,1,134,61.35ZM112.45,39.8a20.69,20.69,0,1,0,20.69,20.69A20.69,20.69,0,0,0,112.45,39.8Z"></path><circle class="cls-1" cx="112.45" cy="60.49" r="20.69"></circle><circle class="cls-3" cx="112.45" cy="60.84" r="0.65"></circle><line class="cls-4" x1="112.45" y1="59.45" x2="112.45" y2="54.93"></line><line class="cls-4" x1="111.38" y1="59.95" x2="107.92" y2="57.04"></line><line class="cls-4" x1="111.08" y1="61.08" x2="106.63" y2="61.87"></line><line class="cls-4" x1="111.75" y1="62.05" x2="109.49" y2="65.96"></line><line class="cls-4" x1="112.93" y1="62.15" x2="114.47" y2="66.4"></line><line class="cls-4" x1="113.76" y1="61.32" x2="118" y2="62.86"></line><line class="cls-4" x1="113.66" y1="60.15" x2="117.57" y2="57.89"></line><circle class="cls-5" cx="112.45" cy="60.84" r="11.35"></circle><path class="cls-3" d="M111.34,72.14v4.8l1.84,2,2-2.2v-4.9A8.63,8.63,0,0,1,111.34,72.14Z"></path><path class="cls-5" d="M115.27,71.83l1.65,4.52,2.41,1.28,1.12-2.75-1.67-4.6A8.64,8.64,0,0,1,115.27,71.83Z"></path><path class="cls-3" d="M118.86,70.21,122,73.89l2.71.37.11-3-3.15-3.76A8.62,8.62,0,0,1,118.86,70.21Z"></path><path class="cls-5" d="M121.68,67.45l4.16,2.4,2.67-.57-.9-2.83L123.36,64A8.63,8.63,0,0,1,121.68,67.45Z"></path><path class="cls-3" d="M123.38,63.89l4.74.84,2.31-1.46-1.82-2.34-4.83-.85A8.6,8.6,0,0,1,123.38,63.89Z"></path><path class="cls-5" d="M106,51.48,103,47.79l-2.71-.37-.11,3,3.15,3.75A8.64,8.64,0,0,1,106,51.48Z"></path><path class="cls-3" d="M103.22,54.24l-4.16-2.41-2.67.58.9,2.82,4.25,2.45A8.55,8.55,0,0,1,103.22,54.24Z"></path><path class="cls-5" d="M101.52,57.79,96.78,57l-2.31,1.46,1.82,2.34,4.83.85A8.61,8.61,0,0,1,101.52,57.79Z"></path><path class="cls-3" d="M101.14,61.71l-4.74.84-1.68,2.16,2.51,1.58,4.83-.86A8.63,8.63,0,0,1,101.14,61.71Z"></path><path class="cls-5" d="M102.12,65.53,98,67.93l-.84,2.61,2.9.62,4.25-2.45A8.59,8.59,0,0,1,102.12,65.53Z"></path><path class="cls-3" d="M104.34,68.78l-3.09,3.68.11,2.74,2.93-.41L107.44,71A8.69,8.69,0,0,1,104.34,68.78Z"></path><path class="cls-5" d="M107.55,71.08l-1.65,4.51,1,2.54,2.63-1.39,1.67-4.61A8.54,8.54,0,0,1,107.55,71.08Z"></path><polygon class="cls-6" points="96.39 52.41 97.1 52.25 97.86 54.63 101.75 57.04 101.54 57.68 97.29 55.23 96.39 52.41"></polygon><polygon class="cls-6" points="95.23 64.05 97.44 65.53 101.77 64.79 102.06 65.43 97.23 66.29 94.72 64.71 95.23 64.05"></polygon><polygon class="cls-6" points="101.33 74.53 104.06 74.09 106.84 70.69 107.44 71.04 104.29 74.79 101.36 75.2 101.33 74.53"></polygon><polygon class="cls-6" points="112.7 78.44 114.42 76.47 114.42 72.06 115.17 71.87 115.17 76.77 113.18 78.97 112.7 78.44"></polygon><polygon class="cls-6" points="123.89 74.16 123.89 71.61 121.06 68.23 121.62 67.54 124.77 71.3 124.66 74.26 123.89 74.16"></polygon><polygon class="cls-6" points="129.79 63.68 127.99 61.58 123.8 60.84 123.78 60.08 128.61 60.93 130.43 63.27 129.79 63.68"></polygon><path class="cls-7" d="M118.48,52.1c-1.19,1.31-1.5-.39-.92-1.13s4.64-8,4.64-8a13.45,13.45,0,0,1,2.67.61,1.55,1.55,0,0,1,.83.56h0l2.45-2.86c-1-.8-1.61-2.86-1.61-4.36,0-1.79.83-4.82,1.82-5.84s3.31-.18,4-.3,0-.49-.28-1.44,0-.81.27-.81.27-.72.06-.84-.56.15-.56-.46.07-.79.45-.79.31-1-.45-1c-.58,0-1.52.29-2-1.73s-.42-2.56-1-2.56-.42,1.07-.42,1.07.37,2-.87,2.48-2-.37-2.8-.43a1.06,1.06,0,0,0-.61,2c1.3,1,2.66,1.38,2.66,3s-3.59,2.49-3.59,3.73.32,2.91-2.68,4.63-3.48,5.2-4.59,7.76-3.08,7.53-3.66,9-1.13,5.54.42,5.54,4.49-2.89,5.6-4.15,6.06-7.25,6.77-7.8a13.16,13.16,0,0,1,1.34-1.24l-1.09-1C124.42,46.49,119.55,50.92,118.48,52.1Z"></path><path d="M128.51,48.21A9.42,9.42,0,0,1,123,53c-3,.79-8.9,1.67-13.12.29-.12.43-.22.86-.32,1.29a29.38,29.38,0,0,0,10.27.6c3.83-.33,8.56-2.19,10.23-6.32a1,1,0,0,1-.46.1A1.1,1.1,0,0,1,128.51,48.21Z"></path><path d="M131.11,47.85a1.55,1.55,0,1,1-1.55-1.55A1.56,1.56,0,0,1,131.11,47.85Zm-1.55-1.12a1.12,1.12,0,1,0,1.11,1.12A1.12,1.12,0,0,0,129.56,46.73Z"></path><path d="M16.39,42.89s.77,1.34,0,5c-.59,3-2.79,14.51-2.79,14.51-.52,2.17-1.62,6.82-10.76,7.8,0,0,11.43,3.61,16.15-5.58,1-2,2.32-11.24,2.89-13.87S23.41,42.7,16.39,42.89Z"></path><path d="M23.82,52.22s.77,1.19.26,4.1c-.47,2.09-1.62,8.28-1.62,8.39-.31,2-.5,6.5,4.86,6.18A62.55,62.55,0,0,0,35,70.1l.37.58h3.42L41,57.36c.26-1.94,1.28-5.15-6-5.14,0,0,.51,1,0,4S33.46,65,33.46,65C33,67,32.31,68.23,30.55,68.23s-2.33-1.94-2-3.67S30,56.89,30,56.89C30.38,54.79,29,51.79,23.82,52.22Z"></path><path d="M52.85,52.21s-7.27-.31-9.74,5.33c-1.9,4.52,3.44,5.26,4.7,6.1s2.5,1.84,1.76,3.54S47,69.81,44.34,69.65c-1.64-.18-1.93,1.33.9,1.33s6.81.08,9.61-3.66,1.18-5.72-.31-6.43-5.6-2-5.28-4.45a2.66,2.66,0,0,1,4.36-1.6c.76.73-1,1.26,0,2.1a4.67,4.67,0,0,0,5.3.42C61,56.1,61.55,52,52.85,52.21Z"></path><path d="M172,54.16s-7.28-.32-9.75,5.33c-1.9,4.52,3.44,5.25,4.7,6.09s2.5,1.84,1.76,3.55-2.57,2.63-5.22,2.47c-1.64-.19-1.93,1.32.89,1.32s6.82.08,9.61-3.66,1.19-5.71-.31-6.42-5.6-2.05-5.28-4.45a2.66,2.66,0,0,1,4.36-1.61c.76.74-1,1.26,0,2.1a4.66,4.66,0,0,0,5.31.42C180.12,58,180.7,53.92,172,54.16Z"></path><path d="M63.7,42.65s.63.6.16,3.26-2.78,16-2.78,16c-.27,2-.76,8.51,4.67,9.05l2.62-15.84,6.23-2.27v-.76H68.9l.74-5.23C69.82,45.7,69.43,42.6,63.7,42.65Z"></path><path d="M91.53,46.75,87.2,71c-4.22,0-4.85-6.07-4.85-6.07H74.43c-1.61,0-5.79,1-3-4.65S83.4,45.33,83.4,45.33a9.53,9.53,0,0,1,6.1-2.5C92.36,42.83,91.53,46.75,91.53,46.75Zm-6.85,1.73s-7.09,7.61-9.54,12.81h7.53Z"></path><path class="cls-8" d="M122.64,40.66c-3.35-.63-5.34-.34-8.53,3.6a24.7,24.7,0,0,0-4.27,9c4.22,1.38,10.11.5,13.12-.29a9.42,9.42,0,0,0,5.55-4.79,1.15,1.15,0,0,1-.07-.36,1.1,1.1,0,0,1,.64-1,5.83,5.83,0,0,0,.16-.71C129.53,44.14,126,41.29,122.64,40.66Z"></path><path d="M102.11,58.46c0,4.21.1,9.56,7.46,12,3,1,9.87.24,11.06-.26h1.23v.42h2.63l1.25-7.93c.35-2.29.67-5.17-5.64-5.48,0,0-.47,6.38-.9,8.31s-.87,1.82-3.16,1.82-7.13-2.49-7.13-7.49a25.52,25.52,0,0,1,.61-5.25,11.28,11.28,0,0,1-5.07-2.85C103.18,54.12,102.11,56.67,102.11,58.46Z"></path><path d="M104.66,40.45a7.26,7.26,0,0,0-1.46,9.69,9.43,9.43,0,0,0,1.25,1.59c.27-.5.54-1,.82-1.47C102.65,47.59,101.54,44.23,104.66,40.45Z"></path><path d="M107.52,52.16a17.49,17.49,0,0,1-2.25-1.9c-.28.48-.55,1-.82,1.47a11.28,11.28,0,0,0,5.07,2.85c.1-.43.2-.86.32-1.29A8.78,8.78,0,0,1,107.52,52.16Z"></path><path d="M129.76,54.31s.83.79.26,3.55-3.69,13.36,3.2,14.5L135.74,59C136.06,57.11,135.63,54.63,129.76,54.31Z"></path><ellipse cx="133.99" cy="50.45" rx="3.44" ry="2.79" transform="translate(14.99 130.06) rotate(-54.42)"></ellipse><path d="M137.12,54.58a12.35,12.35,0,0,1,0,4.54c-.47,2.31-3.31,13.44,3.71,13.44l1.73-11.71c.32-1.45,2.15-4.61,4.55-3.7.67.3-.45.41,0,1.34a3.65,3.65,0,0,0,4.75,1.58c2.48-1.11,2.52-5.32-2.46-5.32s-5.05,1.81-6.76,1.81S142.48,54.58,137.12,54.58Z"></path><path d="M156.3,45.43s.92.58.24,3.58-2.63,14.81-2.63,14.81c-.21,2.31-1.1,9.21,5.87,8.74,0,0-1.34-.83-.63-5.28s3.07-17,3.07-17C162.5,48.48,162.28,45.74,156.3,45.43Z"></path><circle class="cls-7" cx="177.05" cy="71.15" r="1.21"></circle><path class="cls-7" d="M185.72,67.92c.45,1.46,0,2.9-1,3.22s-2.22-.61-2.67-2.06,0-2.9,1-3.22S185.26,66.46,185.72,67.92ZM180.49,65l-1.42,8.09c-.13,1,.19,3.1,1.79,3.1,0,0,0-3.39.68-3.68s3.31-.13,4.52-.92a5.13,5.13,0,0,0,2.08-4.78c-.37-1.92-3.65-2.26-5.39-1.52-.92.3-1,0-1-.36S180.57,64.55,180.49,65Z"></path><path class="cls-7" d="M190.19,60.91s.39.34,0,2.22-1.06,6-1.06,6c-.15.89-.1,3.23,1.87,3.23,0,0,.05-2.34,1-2.42s1,2.23,2.16,2.23h2.52l-2.52-4,2.76-2.47c.5-.39.15-1.26-1-.65s-3.2,3.1-3.86,3.1-.79-.84-.34-1.84S194.07,60.88,190.19,60.91Z"></path><path d="M117.94,40.45A1.92,1.92,0,1,1,116,38.53,1.92,1.92,0,0,1,117.94,40.45ZM116,39.07a1.38,1.38,0,1,0,1.38,1.38A1.38,1.38,0,0,0,116,39.07Z"></path><path d="M127.8,40.45c-2.42-1.71-5.2-3.37-9.93-2.19a11,11,0,0,0-2.35.91,1.44,1.44,0,0,1,.5-.1,1.38,1.38,0,0,1,1.38,1.38,1.39,1.39,0,0,1-.51,1.07c1.83-1.29,3.47-1.29,5.75-.86,3.35.63,6.89,3.48,6.6,5.48a5.83,5.83,0,0,1-.16.71,1,1,0,0,1,.48-.12,1.12,1.12,0,0,1,.93.5c0-.28.09-.57.12-.88C130.61,46.35,130.21,42.16,127.8,40.45Z"></path><path d="M114.64,40.45a1.36,1.36,0,0,1,.74-1.21,23.62,23.62,0,0,0-6.73,5.88,51.46,51.46,0,0,0-3.38,5.14,17.49,17.49,0,0,0,2.25,1.9,8.78,8.78,0,0,0,2.32,1.13,24.7,24.7,0,0,1,4.27-9,14.83,14.83,0,0,1,2.64-2.64,1.38,1.38,0,0,1-2.11-1.17Z"></path><path class="cls-8" d="M124.87,43.53a13.45,13.45,0,0,0-2.67-.61s-4.06,7.32-4.64,8-.27,2.44.92,1.13,5.94-5.61,6.86-6.45l-.85-.78,1.21-.78A1.55,1.55,0,0,0,124.87,43.53Z"></path><path class="cls-7" d="M130.37,43.54c0-.38-.17-2.14-1.53-2.43a1.58,1.58,0,0,1-.62-.31l-2.52,3.29h0a1.14,1.14,0,0,1-.2,1.42l-.16.14,1.09,1a4,4,0,0,1,2.06-.58C130.77,46,130.37,43.91,130.37,43.54Z"></path></svg> 