<?xml version="1.0" encoding="UTF-8"?> <svg xmlns="http://www.w3.org/2000/svg" id="Layer_1" data-name="Layer 1" width="50" height="50" viewBox="0 0 50 50"><defs><style>.cls-1{fill:#ec145b;}</style></defs><path class="cls-1" d="M43.71,28l.17,0c1.27-.1,1.44.32,1.4,1.43s0,2.11,0,3.22c.7.11.79.61.79,1.22q0,6.66,0,13.31c0,.87-.23,1.1-1.09,1.1q-15.32,0-30.65,0c-.6,0-1.2-.3-1.8-.3s-1.17.26-1.77.3c-.85,0-1.72,0-2.58,0a2.37,2.37,0,0,1-2.65-2.64c0-10,0-19.95,0-29.93a32.28,32.28,0,0,0-.61-4.67C4.6,9.31,4.26,7.5,4,5.69a3.71,3.71,0,0,1,3-4,20.28,20.28,0,0,1,4.8,0,3.67,3.67,0,0,1,3,4.29q-.72,4.33-1.45,8.69a1.94,1.94,0,0,0,0,.24c0,2.79,0,5.59,0,8.5a13.32,13.32,0,0,1,21,1V21.61c0-1.18.12-1.31,1.3-1.33l.26,0v-.52c0-2.32,0-4.65,0-7a2,2,0,0,1,.28-.95c.38-.68.81-1.33,1.23-2a.79.79,0,0,1,1.4-.1q1.54,1.85,3,3.73a1.34,1.34,0,0,1,.25.81c0,1.8,0,3.6,0,5.41v.6h.63c.64,0,.92.29.92.93,0,2.12,0,4.25,0,6.38ZM23.43,39C25,39,26.49,39,28,39a1,1,0,0,0,.62-.2A8.29,8.29,0,0,0,32,32.42a8.52,8.52,0,0,0-10.31-8.81A8.07,8.07,0,0,0,15.11,30a8.23,8.23,0,0,0,3.09,8.71,1.18,1.18,0,0,0,.7.24C20.41,39,21.92,39,23.43,39ZM11.76,40.58a2,2,0,0,0,0,.21q0,1.8,0,3.6a2.33,2.33,0,0,0,2.39,2.41c.79,0,1.59,0,2.39,0H32.65a2.26,2.26,0,0,0,2.44-2c.1-1.4,0-2.81,0-4.23h-7v2.07c0,.76-.26,1-1,1H19.78c-.76,0-1-.26-1-1V40.58Zm24.18,6.19h8.53V34.35H36.64L34.86,39h.83c.74,0,1,.27,1,1,0,1.26,0,2.53,0,3.8A4.57,4.57,0,0,1,35.94,46.77ZM30.83,39l.2,0c.47,0,.94,0,1.41,0a.89.89,0,0,0,.58-.32,11.21,11.21,0,0,0,2-8.41A11.69,11.69,0,1,0,13.8,38.6c.1.15.25.37.4.38.6,0,1.21,0,1.87,0a10.16,10.16,0,1,1,14.76,0ZM7.06,26.54V27q0,9.41,0,18.81c0,.11,0,.26,0,.33.19.24.4.63.62.65,1,.06,2.12,0,3.08,0a9.27,9.27,0,0,1-.56-2c-.08-1.65,0-3.31,0-5A.75.75,0,0,1,11,39c.24,0,.48,0,.85,0a7.06,7.06,0,0,0-.32-1.21,12.8,12.8,0,0,1-1.14-7.91c.2-1.12.56-2.22.84-3.34ZM11.84,14c0-.16.07-.28.09-.41.44-2.61.86-5.22,1.3-7.82a2.26,2.26,0,0,0-2.1-2.67c-1.15,0-2.3,0-3.45,0A2.26,2.26,0,0,0,5.54,5.6Q6.07,8.8,6.6,12c.11.68.24,1.36.36,2ZM7.1,15.62v9.3h4.62v-9.3Zm35,6.25H35.92c0,1.86,0,3.68,0,5.49a3.38,3.38,0,0,0,.16.7h6ZM38.26,11.48c-.34.61-.82,1.06-.8,1.83,0,2.14,0,4.28,0,6.43v.5H40.6c0-1.93,0-3.83,0-5.73a.64.64,0,0,0-.12-.35ZM43.7,29.67H36.55l.19,3.06h7ZM26.53,42.1V40.6H20.35v1.5Z"></path></svg> 