<?xml version="1.0" encoding="UTF-8"?> <svg xmlns="http://www.w3.org/2000/svg" id="Layer_1" data-name="Layer 1" width="50" height="50" viewBox="0 0 50 50"><defs><style>.cls-1{fill:#ec145b;}</style></defs><path class="cls-1" d="M48.82,36.31c-.07-.6-.13-1.23-.18-1.85-.19-2.18-.37-4.36-.55-6.57L47.85,25H45.53l.09-.43c.1-.46.19-.9.29-1.33.16-.73.08-.93-.59-1.24l0-.22.18-.86c.23-1,.15-1.24-.77-1.63l1.29-6.19c.09-.41.18-.82.26-1.24v0a.74.74,0,0,0,0-.49,1.17,1.17,0,0,1,0-1c0-.06,0-.13,0-.19l.3-1.39c.33-1.49.65-3,1-4.46A2.52,2.52,0,0,0,47,1.86a2.54,2.54,0,0,0-2.48-.4,3,3,0,0,0-2.23,2.4c-.21,1-.42,2-.64,3-.17.83-.34,1.66-.52,2.5,0,.09-.05.19-.08.29v.06c-1-.1-1.2.07-1.41,1.09l-.13.65c-.42,2-.86,4.09-1.3,6.13,0,.08-.1.16-.18.24l-.14.13a1.25,1.25,0,0,1-.16.17,1.12,1.12,0,0,0-.33.45c-.12.39-.2.79-.29,1.21l-.09.43c-.65,0-.82.5-.9.93-.13.65-.27,1.32-.4,2s-.22,1-.32,1.55c0,.16-.07.24-.13.27a.25.25,0,0,1-.21,0v-.09c0-.32,0-.66,0-1l.11-2.29.45-9.21a2.12,2.12,0,0,1,.17-.69c.52-1.14,1-2.28,1.58-3.42l.79-1.71A4.19,4.19,0,0,0,38.32,3,4.23,4.23,0,0,0,35.44.8l0,0,0,0,0,0H30.48l-.77,0C29.16.77,28.6.8,28,.8a4,4,0,0,0-3.42,1.79,4,4,0,0,0-.2,3.83c.58,1.31,1.21,2.72,1.9,4.11a8,8,0,0,1,.84,3.11c.13,2.55.3,5.15.47,7.66l.21,3.27a1.6,1.6,0,0,1,0,.31V25H23.6V10.23c0-.77-.17-1-.91-1.14V7.49c0-1.2,0-2.39,0-3.58,0-.9-.22-1.14-1.11-1.14H16.85c-.82,0-1.09.26-1.09,1.08V9.06c-.86.3-.89.37-.89,1.35V25H11.73V24.7c0-.3,0-.6,0-.9,0-.84-.24-1.08-1.07-1.08H9.19V9h.09l.41,0a.8.8,0,0,0,.83-.81V7.25c0-1.39,0-2.83,0-4.24A2.35,2.35,0,0,0,8.81.89L8.43.73H7.23l0,0,0,0,0,0A3.91,3.91,0,0,0,4,4.73c0,1,0,2.07,0,3.08V8c0,.72.27,1,1,1l.22,0h0V22.72H3.64a.94.94,0,0,0-.76.27.84.84,0,0,0-.16.67,3.6,3.6,0,0,1-.16,1.42,5.9,5.9,0,0,0-.17,1c-.16,2-.34,4.14-.51,6.15l-.2,2.36c-.05.64-.11,1.29-.16,1.93-.11,1.43-.23,2.91-.38,4.36A7.37,7.37,0,0,0,7,49.12a8.35,8.35,0,0,0,1.71.15h32.9a7.31,7.31,0,0,0,7.17-4.87.75.75,0,0,1,.07-.12.16.16,0,0,1,0-.07v-7ZM7.41,9V22.69H7V9Zm1.42-2a.26.26,0,0,1,0,.18.4.4,0,0,1-.19,0H5.92c-.1,0-.16,0-.19,0a.26.26,0,0,1-.05-.18c0-.31,0-.63,0-.94,0-.51,0-1,0-1.55A2.18,2.18,0,0,1,7.77,2.44h.06a1,1,0,0,1,.7.23,1,1,0,0,1,.29.73c0,.43,0,.86,0,1.27,0,.19,0,.38,0,.57v.58C8.82,6.24,8.82,6.66,8.83,7.08Zm8.67,2V4.51H21V9.08ZM20.73,13c0-.63-.33-1-.86-1h0c-.53,0-.84.36-.84,1q0,3.22,0,6.43v5.49H16.61v-14h5.25v14H20.73V13.22A2.35,2.35,0,0,0,20.73,13Zm12.88,5.55-.31,6.42H29.56c-.14-2.13-.28-4.24-.43-6.42Zm.28-5.71-.2,3.94H29l-.26-3.94ZM33,10.93h-.29l.3-.63,1.46-3.09c.22-.45.19-.8-.08-1A1.06,1.06,0,0,0,33.55,6a1,1,0,0,0-.6.57c-.42.83-.81,1.66-1.23,2.54l-.36.77a2.39,2.39,0,0,1-.13-.21c-.21-.43-.42-.87-.64-1.3l-.9-1.83A.87.87,0,0,0,28.5,6a.75.75,0,0,0-.41.43,1.06,1.06,0,0,0,.09.84c.33.7.68,1.39,1,2.08l.62,1.26.15.32L30,11h-.3c-.42,0-.82,0-1.22,0,0,0-.13-.1-.18-.21l-.48-1C27.2,8.4,26.56,7,26,5.64a2.25,2.25,0,0,1,.11-2.13,2.24,2.24,0,0,1,1.91-1h.12c2.16,0,4.39-.07,6.58-.08h0a2,2,0,0,1,2.16,1.88,2.19,2.19,0,0,1-.16,1c-.67,1.58-1.42,3.28-2.35,5.35a.49.49,0,0,1-.35.23C33.66,10.94,33.34,10.93,33,10.93Zm9.76-.79.08-.39c.07-.34.14-.66.21-1l.22-1,.78-3.46A1.46,1.46,0,0,1,45.5,3h0a.55.55,0,0,1,.45.17.51.51,0,0,1,.06.4c-.38,1.75-.77,3.5-1.17,5.28l-.36,1.62Zm4.58,29.38,0,.43a13.47,13.47,0,0,1,0,3.11,5.55,5.55,0,0,1-5.44,4.5H8.5A5.6,5.6,0,0,1,3,43.35a8.09,8.09,0,0,1-.06-2.86L3,39.81c.16-2.09.34-4.22.5-6.27L4,26.68H46.3l0,.33c.07.78.14,1.59.2,2.39s.15,1.81.23,2.71C47,34.54,47.17,37.05,47.34,39.52ZM38.91,19.79l4.86,1-.18.81-4.85-1Zm1-1.6,1.39-6.54,3.27.74-1.38,6.52Zm-2.77,6.75.61-2.82,6.37,1.4-.06.29c-.08.35-.15.68-.24,1a.33.33,0,0,1-.2.14l-5.62,0Zm-32.66,0v-.48H10v.48Z"></path><path class="cls-1" d="M37.6,35.9l-.12-1.51c-.08-.92-.16-1.83-.24-2.76l-.09-1H13.26l0,.39c0,.21,0,.42,0,.63-.08.86-.15,1.71-.23,2.56-.15,1.67-.3,3.4-.44,5.1a4.15,4.15,0,0,0,1.07,3.12,4,4,0,0,0,2.92,1.3l8.75,0c2.84,0,5.72,0,8.58,0a3.93,3.93,0,0,0,3.69-2.46,5.12,5.12,0,0,0,.29-2.69C37.74,37.65,37.67,36.77,37.6,35.9Zm-1.53,3.22a2.69,2.69,0,0,1-.65,2.07,2.64,2.64,0,0,1-2,.77H16.89A2.48,2.48,0,0,1,14.29,40a7.81,7.81,0,0,1,0-1.74c0-.17,0-.33,0-.49l.18-2.17c.09-1,.18-2,.25-3,0-.33.1-.37.4-.37h20l.27,0h.07c0,.26.05.52.07.77.05.55.1,1.1.14,1.67C35.87,36.13,36,37.64,36.07,39.12Z"></path></svg> 