<?xml version="1.0" encoding="UTF-8"?> <svg xmlns="http://www.w3.org/2000/svg" id="Layer_1" data-name="Layer 1" width="50" height="50" viewBox="0 0 50 50"><defs><style>.cls-1{fill:#ec145b;}</style></defs><path class="cls-1" d="M18.48,33.1a1,1,0,0,0,.25-1c-.17-.62-.35-1.23-.52-1.85-.31-1.09-.63-2.22-.92-3.34a1.54,1.54,0,0,0-1-1.14c-3.16-1.37-6.43-2.78-9.7-4.26A7.36,7.36,0,0,1,2,14.85c0-.38-.09-.81-.57-1a.85.85,0,0,0-1.06.5v1.13l0,.12a1,1,0,0,1,.06.23,8.78,8.78,0,0,0,5.1,7c2.48,1.16,5,2.26,7.49,3.33l2.21,1a.83.83,0,0,1,.54.64c.47,1.78.91,3.32,1.33,4.73a1.22,1.22,0,0,0,.6.71.92.92,0,0,0,.28.05A.63.63,0,0,0,18.48,33.1Z"></path><path class="cls-1" d="M1.51,4.86h1c.41,0,.82,0,1.23,0h.52a11.13,11.13,0,0,1,4.51,1l13,5.72,3.52,1.54a1.65,1.65,0,0,0,.44.16l.21,0a.81.81,0,0,0,.41-1.47,1.85,1.85,0,0,0-.37-.19l-1.48-.65L10.9,5l-.75-.34a11.25,11.25,0,0,0-3.5-1.15c-1.12-.11-2.26-.14-3.36-.18L1.55,3.22a1.22,1.22,0,0,0-1.13.46l0,0v.64l0,0A1.27,1.27,0,0,0,1.51,4.86Z"></path><path class="cls-1" d="M4.92,31.26c-.24,0-.48,0-.73,0H4V30c0-1.06-.12-1.61-.8-1.62h0a.67.67,0,0,0-.5.18c-.22.21-.31.62-.31,1.41v1.27H2.1a3.72,3.72,0,0,1-.58,0,1.1,1.1,0,0,0-1.1.52l0,0v.55a1.18,1.18,0,0,0,1.28.54,2.61,2.61,0,0,1,.63,0v.56c0,.47,0,1,0,1.43a.87.87,0,0,0,.39.73.73.73,0,0,0,.41.12,1,1,0,0,0,.32-.06A.85.85,0,0,0,4,34.84v-2h1c.57,0,.94-.33.93-.82S5.49,31.27,4.92,31.26Z"></path><path class="cls-1" d="M49.59,6.56A1.22,1.22,0,0,0,48.29,6a2,2,0,0,1-.6,0V5.48c0-.45,0-.89,0-1.33,0-.6-.31-1-.81-1h0c-.5,0-.81.38-.82,1V6h-1a.83.83,0,0,0-.91.78.77.77,0,0,0,.2.57,1,1,0,0,0,.71.27h1V9.5c0,.64.31,1,.82,1h0c.51,0,.81-.39.81-1,0-.45,0-.9,0-1.36V7.67h.21a5.51,5.51,0,0,1,.58,0,1.06,1.06,0,0,0,1.1-.53l0,0V6.56Z"></path><path class="cls-1" d="M41.57,18.43l-5.29-2.32L33.75,15,33,14.65c-1.26-.55-2.51-1.11-3.77-1.65a1,1,0,0,0-.75-.05.78.78,0,0,0-.42.45.8.8,0,0,0,.51,1.08l.36.16a6.28,6.28,0,0,1,.59.27.63.63,0,0,1,.27.37,9.58,9.58,0,0,0,2.06,5.12l.62.78C33.69,22.77,35,24.42,36.23,26a2.73,2.73,0,0,1,.43.85c.41,1.44.82,2.9,1.21,4.32l.3,1.09c.3,1.06.59,2.11.88,3.16l.58,2.1a3.64,3.64,0,0,0-1.76,4,1.71,1.71,0,0,1-.19-.21,12.62,12.62,0,0,1-2.24-4.46c-.48-1.6-.94-3.24-1.39-4.83-.3-1.09-.61-2.19-.93-3.28a3.08,3.08,0,0,0-.52-1c-1.36-1.76-2.75-3.53-4.1-5.25L27.31,21a.76.76,0,0,1-.08-.11c-.09-.1-.17-.21-.27-.31a.77.77,0,0,0-1.08-.05.75.75,0,0,0-.19,1,2.49,2.49,0,0,0,.23.31l1.53,2,3.82,4.9a1.48,1.48,0,0,1,.27.51c.45,1.61.91,3.23,1.36,4.85l1.26,4.51A.3.3,0,0,1,34,39a3.35,3.35,0,0,0-1.58,2.43,6.41,6.41,0,0,0,0,1.07c0,.09,0,.18,0,.28l-.15-.17a11.3,11.3,0,0,1-2-3.75c-.73-2.32-1.38-4.62-2.09-7.18A4.67,4.67,0,0,0,27.32,30c-.87-1.08-1.73-2.18-2.56-3.25-.43-.55-.87-1.12-1.31-1.67a1.3,1.3,0,0,0-1.71-.49,1.28,1.28,0,0,0-.59,1.63.43.43,0,0,1,0,.11.56.56,0,0,1,0,.12l.45,1.63q1.45,5.23,2.92,10.45c.08.28,0,.39-.2.54a3.18,3.18,0,0,0-1.5,2.27,8.08,8.08,0,0,0,0,1.21v.31l-.08-.1a3.32,3.32,0,0,1-.49-.66l-.24-.45a26.3,26.3,0,0,1-1.34-2.78c-.31-.81-.56-1.67-.79-2.5-.12-.39-.23-.79-.35-1.18a.82.82,0,0,0-1-.67c-.47.13-.66.55-.52,1.12,0,.16.08.32.13.48l.07.25a22.73,22.73,0,0,0,2.37,6.1,6.58,6.58,0,0,0,3,2.85.38.38,0,0,1,.18.18A2.63,2.63,0,0,0,26,46.73a4.91,4.91,0,0,0,.74-.06A1.56,1.56,0,0,0,27.93,46,1.54,1.54,0,0,0,28,44.75l-2.64-9.47-2.21-8,1,1.29,2.1,2.7a1.57,1.57,0,0,1,.24.52c.42,1.48.85,3,1.27,4.54a22.69,22.69,0,0,0,2.45,6.22,6.41,6.41,0,0,0,2.84,2.69.45.45,0,0,1,.2.17,2.79,2.79,0,0,0,3.15,1.2,1.31,1.31,0,0,0,1.17-1.84c-.12-.43-.23-.85-.35-1.26l-.09-.34.17.1,1.2.71a.49.49,0,0,1,.16.16,2.9,2.9,0,0,0,3.49,1.12,1.25,1.25,0,0,0,.89-1.54c-.06-.26-.14-.52-.21-.77s-.07-.22-.1-.33l-.9-3.25.14,0a1.81,1.81,0,0,0,1.49-.24,1.79,1.79,0,0,0,.46-1.45V22.07A3.63,3.63,0,0,0,41.57,18.43ZM39.46,41.14a1.89,1.89,0,0,1,.64-1.9l1.26,4.5a1,1,0,0,1-.83,0A.83.83,0,0,1,40,43.2,21.08,21.08,0,0,1,39.46,41.14ZM42.3,28.38c0,.85,0,1.7,0,2.55v.41A3.79,3.79,0,0,0,40.07,33v0a2.63,2.63,0,0,1-.1-.3c-.18-.63-.35-1.25-.52-1.88-.4-1.45-.82-2.95-1.25-4.42a3.76,3.76,0,0,0-.6-1.2c-1.34-1.75-2.73-3.52-4.07-5.22l-.4-.51a7.79,7.79,0,0,1-1.56-3.19c0-.11,0-.22-.06-.36a.13.13,0,0,1,0-.06l1.15.5,2.84,1.24,1.73.76c1.19.53,2.43,1.08,3.65,1.6a2.15,2.15,0,0,1,1.45,2.21C42.3,24.19,42.3,26.32,42.3,28.38Zm-1.13,6.35a1.8,1.8,0,0,1,1.12-1.61v4.67a1,1,0,0,1-1.12-1.21v-.36C41.16,35.73,41.16,35.23,41.17,34.73Zm-6.73,9.12c-.13-.48-.28-1-.4-1.48a1.79,1.79,0,0,1,.66-1.83L36,45.05c-.82.13-1.2-.1-1.42-.85ZM25.13,40.5l1.26,4.55A1.05,1.05,0,0,1,25,44.21l-.12-.41c-.13-.46-.27-.94-.38-1.42A1.88,1.88,0,0,1,25.13,40.5Z"></path><path class="cls-1" d="M14.16,20a.81.81,0,1,0-.05-1.62h-.43c-.2,0-.41,0-.64,0V16.49a1.1,1.1,0,0,0-.28-.8.78.78,0,0,0-.57-.2c-.5,0-.78.36-.79,1v1.87h-.87c-.85,0-1,.43-1,.79a.8.8,0,0,0,.2.56,1.18,1.18,0,0,0,.86.28h.85v.52a13.34,13.34,0,0,0,0,1.42,1.05,1.05,0,0,0,.36.75.8.8,0,0,0,.45.13.66.66,0,0,0,.36-.09,1.16,1.16,0,0,0,.43-.77c0-.48,0-1,0-1.46V20h.3C13.62,20,13.89,20,14.16,20Z"></path><path class="cls-1" d="M36.06,11h0a2.25,2.25,0,0,0,0-4.5h0a2.25,2.25,0,0,0,0,4.5Zm0-1.64h0a.6.6,0,0,1-.44-.18.58.58,0,0,1-.18-.43.64.64,0,0,1,.6-.61h0a.57.57,0,0,1,.41.17.64.64,0,0,1,.19.45A.59.59,0,0,1,36.1,9.39Z"></path><path class="cls-1" d="M10.78,32.7a2.25,2.25,0,0,0,0,4.5h0a2.27,2.27,0,0,0,1.6-.66A2.22,2.22,0,0,0,13,35a2.18,2.18,0,0,0-.66-1.59A2.22,2.22,0,0,0,10.78,32.7Zm.61,2.3a.6.6,0,0,1-.2.41.61.61,0,0,1-.47.15.6.6,0,0,1-.33-1.07.58.58,0,0,1,.45-.14A.62.62,0,0,1,11.39,35Z"></path></svg> 