<?xml version="1.0" encoding="UTF-8"?> <svg xmlns="http://www.w3.org/2000/svg" id="Layer_1" data-name="Layer 1" width="50" height="50" viewBox="0 0 50 50"><defs><style>.cls-1{fill:#ec145b;}</style></defs><circle class="cls-1" cx="38.96" cy="37.32" r="0.93"></circle><path class="cls-1" d="M13.46,49.57a.76.76,0,0,1-.75-.75V25.17c0-4.88,1.61-8.77,4.78-11.54a.75.75,0,1,1,1,1.12c-2.87,2.52-4.27,5.93-4.27,10.42V48.82A.76.76,0,0,1,13.46,49.57Z"></path><path class="cls-1" d="M39,34.29a.76.76,0,0,1-.75-.75V24.75c0-2.94,0-6.6-3.5-9.68a.75.75,0,1,1,1-1.13c4,3.53,4,7.74,4,10.81v8.79A.76.76,0,0,1,39,34.29Z"></path><path class="cls-1" d="M39,49.57a.76.76,0,0,1-.75-.75V41.13a.75.75,0,0,1,1.5,0v7.69A.76.76,0,0,1,39,49.57Z"></path><path class="cls-1" d="M26.55,33.45a8.74,8.74,0,0,1-8.73-8.27L17.06,11A5.78,5.78,0,0,1,22.84,5h7.44a5.78,5.78,0,0,1,5.77,6.1L35.27,25.2A8.74,8.74,0,0,1,26.55,33.45Zm-3.71-27A4.29,4.29,0,0,0,18.56,11l.76,14.14a7.24,7.24,0,0,0,14.45,0L34.56,11a4.29,4.29,0,0,0-4.28-4.52Z"></path><path class="cls-1" d="M42.46,14.5a1.08,1.08,0,0,1-1-.64l-.87-2-2-.87A1.07,1.07,0,0,1,38,10a1.1,1.1,0,0,1,.65-1l2-.87.87-2a1.1,1.1,0,0,1,1-.65h0a1.09,1.09,0,0,1,1,.65l.87,2,2,.87a1.09,1.09,0,0,1,0,2l-2,.87-.87,2a1.08,1.08,0,0,1-1,.64ZM40.1,10l1.26.56a1.06,1.06,0,0,1,.55.55l.55,1.25L43,11.13a1,1,0,0,1,.56-.55L44.82,10l-1.25-.55A1.11,1.11,0,0,1,43,8.92l-.55-1.26-.55,1.26a1.09,1.09,0,0,1-.55.55Zm4.29,1.71Zm-.52-.47h0Zm1.82-.85ZM44.17,8.1Z"></path><path class="cls-1" d="M8.63,10.47a1.09,1.09,0,0,1-1-.65l-.87-2L4.79,7a1.08,1.08,0,0,1,0-2l2-.87.87-2a1.09,1.09,0,0,1,2,0l.87,2,2,.87a1.07,1.07,0,0,1,0,2l-2,.87-.87,2A1.1,1.1,0,0,1,8.63,10.47ZM6.27,6l1.25.55a1.11,1.11,0,0,1,.56.55l.55,1.25.55-1.25a1.06,1.06,0,0,1,.55-.55L11,6,9.73,5.43a1.06,1.06,0,0,1-.55-.55L8.63,3.63,8.07,4.88a1,1,0,0,1-.55.55Zm4.07,1.92ZM6.7,7.7Zm3.85,0h0ZM10,7.22h0Z"></path><path class="cls-1" d="M6.54,35.45a1.09,1.09,0,0,1-1-.65l-.87-2L2.7,32a1.06,1.06,0,0,1-.64-1,1.08,1.08,0,0,1,.64-1l2-.87.87-2a1.09,1.09,0,0,1,2,0l.87,2,2,.87A1.07,1.07,0,0,1,11,31a1.1,1.1,0,0,1-.65,1l-2,.86-.87,2A1.09,1.09,0,0,1,6.54,35.45ZM4.18,31l1.25.55a1.07,1.07,0,0,1,.56.55l.55,1.25.55-1.25a1.09,1.09,0,0,1,.55-.55L8.9,31l-1.26-.56a1.09,1.09,0,0,1-.55-.55l-.55-1.25L6,29.86a1.07,1.07,0,0,1-.56.55Zm.65,1.92Zm4.94-2.31Zm-6.46,0ZM4.83,29Zm3.42,0Z"></path><path class="cls-1" d="M30.26,40.35H22.85a.75.75,0,0,1,0-1.5h7.41a.75.75,0,0,1,0,1.5Z"></path><path class="cls-1" d="M31.46,44.37h-10a.75.75,0,0,1,0-1.5H31.46a.75.75,0,0,1,0,1.5Z"></path></svg> 