<?xml version="1.0" encoding="UTF-8"?> <svg xmlns="http://www.w3.org/2000/svg" id="Layer_1" data-name="Layer 1" width="50" height="50" viewBox="0 0 50 50"><defs><style>.cls-1{fill:#ec145b;}</style></defs><path class="cls-1" d="M44.66,22A20.32,20.32,0,0,0,32.21,8.07a7.63,7.63,0,0,0-14.6.06A20.37,20.37,0,0,0,5.33,22a5.07,5.07,0,0,0,0,10.12,20.3,20.3,0,0,0,39.33,0,5.07,5.07,0,0,0,0-10.13ZM5,30.65a3.65,3.65,0,0,1,0-7.21,19.86,19.86,0,0,0,0,7.21ZM19.35,7.52a6.23,6.23,0,0,1,11.12,0A20.3,20.3,0,0,0,19.35,7.52Zm-1.71,5.05A16.67,16.67,0,0,0,12,17.36a.71.71,0,0,0,.16,1,.73.73,0,0,0,1-.16,15.3,15.3,0,0,1,5.08-4.31,7.58,7.58,0,0,0,6.74,4.07,7.47,7.47,0,0,0,2.16-.31l.11,0a.68.68,0,0,0,.39-.23.64.64,0,0,0,.17-.51.68.68,0,0,0-.24-.48A4.43,4.43,0,0,1,26,13a4.11,4.11,0,0,1,4.43-4h.23a18.93,18.93,0,1,1-13.33.77c0,.2,0,.38,0,.56A7.61,7.61,0,0,0,17.64,12.57Zm6.94.45a5.84,5.84,0,0,0,1.14,3.47,7,7,0,0,1-.8.05,6.24,6.24,0,0,1-6.23-6.23,6.06,6.06,0,0,1,.1-1.12A18.78,18.78,0,0,1,25,8.12a17.49,17.49,0,0,1,2.42.18A5.27,5.27,0,0,0,24.58,13Zm20.74,14A20.2,20.2,0,0,0,45,23.44a3.65,3.65,0,0,1,0,7.22A20.37,20.37,0,0,0,45.32,27.05Z"></path><path class="cls-1" d="M14.25,29.8a.7.7,0,0,0,.7-.7,2.44,2.44,0,0,1,4.87,0,.7.7,0,1,0,1.4,0,3.84,3.84,0,0,0-7.67,0A.7.7,0,0,0,14.25,29.8Z"></path><path class="cls-1" d="M25,39.63a3.84,3.84,0,0,0,3.83-3.83.7.7,0,1,0-1.4,0,2.44,2.44,0,0,1-4.87,0,.7.7,0,1,0-1.4,0A3.84,3.84,0,0,0,25,39.63Z"></path><path class="cls-1" d="M29.54,29.8a.7.7,0,0,0,.7-.7,2.44,2.44,0,0,1,4.87,0,.7.7,0,0,0,1.4,0,3.84,3.84,0,0,0-7.67,0A.7.7,0,0,0,29.54,29.8Z"></path><path class="cls-1" d="M10.2,20a1,1,0,1,0,1-1A1,1,0,0,0,10.2,20Z"></path></svg> 