<?xml version="1.0" encoding="UTF-8"?> <svg xmlns="http://www.w3.org/2000/svg" id="Layer_1" data-name="Layer 1" width="50" height="50" viewBox="0 0 50 50"><defs><style>.cls-1,.cls-2{fill:none;stroke:#ec145b;stroke-miterlimit:10;stroke-width:1.6px;}.cls-2{stroke-linecap:round;}</style></defs><path class="cls-1" d="M24.54,1.37h.92a5.41,5.41,0,0,1,3,1.77c.7.72,1.44,1.39,2.16,2.09A1.53,1.53,0,0,0,32,5.69c1.16-.17,2.32-.32,3.47-.5a4.13,4.13,0,0,1,5,3.44c.24,1.16.44,2.32.62,3.49a1.79,1.79,0,0,0,1,1.47c1.05.53,2.09,1.09,3.13,1.66a4.12,4.12,0,0,1,1.85,5.69c-.51,1.07-1,2.14-1.56,3.19a1.76,1.76,0,0,0,0,1.75c.52,1,1,2,1.5,3.06a4.15,4.15,0,0,1-1.89,5.86c-1,.55-2.06,1.11-3.1,1.64a1.7,1.7,0,0,0-1,1.32c-.18,1.12-.39,2.24-.58,3.36a4.14,4.14,0,0,1-4.86,3.72c-1.18-.14-2.35-.31-3.52-.5a1.71,1.71,0,0,0-1.63.5c-.85.85-1.72,1.68-2.59,2.5a4.12,4.12,0,0,1-6,0l-2.65-2.56A1.53,1.53,0,0,0,18,44.31c-1.18.17-2.35.33-3.52.51a4.12,4.12,0,0,1-5-3.43C9.23,40.22,9,39,8.84,37.85a1.75,1.75,0,0,0-1-1.43c-1-.52-2.07-1.09-3.1-1.64A4.14,4.14,0,0,1,2.86,29c.49-1,1-2.06,1.5-3.06a1.83,1.83,0,0,0,0-1.84c-.54-1-1-2.09-1.54-3.14a4.14,4.14,0,0,1,1.84-5.7c1.06-.57,2.11-1.14,3.18-1.68a1.7,1.7,0,0,0,1-1.35c.19-1.14.39-2.28.59-3.41A4.13,4.13,0,0,1,14.3,5.17c1.18.14,2.35.32,3.52.5a1.69,1.69,0,0,0,1.59-.5c.68-.69,1.41-1.33,2.08-2A5.43,5.43,0,0,1,24.54,1.37Z"></path><path class="cls-1" d="M30.49,28.69A3.59,3.59,0,1,0,34,32.34,3.59,3.59,0,0,0,30.49,28.69Z"></path><path class="cls-1" d="M19.59,14.13a3.6,3.6,0,1,0,3.55,3.66A3.61,3.61,0,0,0,19.59,14.13Z"></path><line class="cls-2" x1="15.12" y1="35.02" x2="35.02" y2="15.11"></line></svg> 