<?xml version="1.0" encoding="UTF-8"?> <svg xmlns="http://www.w3.org/2000/svg" id="Layer_1" data-name="Layer 1" width="50" height="50" viewBox="0 0 50 50"><defs><style>.cls-1{fill:#ec145b;}</style></defs><path class="cls-1" d="M32.47,38.39a9.88,9.88,0,0,1-10,0c-.08.33-.15.64-.22,1C21,44.62,17.1,48,11.15,48a.8.8,0,0,1-.91-.82c0-.5.33-.8.91-.81a10.52,10.52,0,0,0,4.9-1.12,9.13,9.13,0,0,0,4.74-7,1.53,1.53,0,0,0-.52-1.55,15.35,15.35,0,0,1-4.21-7.54,1,1,0,0,0-.43-.5,6,6,0,0,1-2.92-5,3.06,3.06,0,0,1,2.45-3.45c0-1,0-2,0-3.05a9.67,9.67,0,0,1,4.63-8.67A13.68,13.68,0,0,1,38.2,11.52a7.8,7.8,0,0,1,1.55,4.68c0,1.31,0,2.63,0,3.93,2.12.76,2.84,2.2,2.32,4.56a5.93,5.93,0,0,1-2.75,3.85,1.17,1.17,0,0,0-.54.79,15.36,15.36,0,0,1-4.28,7.44A1.26,1.26,0,0,0,34.1,38a9.22,9.22,0,0,0,4.44,7,10.15,10.15,0,0,0,4.79,1.28h.52a.82.82,0,1,1,0,1.63,12.42,12.42,0,0,1-4.67-.8c-3.78-1.48-5.77-4.39-6.57-8.25C32.55,38.75,32.52,38.6,32.47,38.39Zm5.64-18.85c0-.44,0-.89,0-1.33a.89.89,0,0,0-.18-.5A13.47,13.47,0,0,0,17,17.7a1,1,0,0,0-.2.55c0,.83,0,1.67,0,2.5,0,.65-.27.92-.93,1a1.42,1.42,0,0,0-1.52,1.65A4.42,4.42,0,0,0,17,27.44a1,1,0,0,1,.66,1,1.41,1.41,0,0,0,.05.35,13.05,13.05,0,0,0,4.65,7.51,8,8,0,0,0,6.93,1.62,7.79,7.79,0,0,0,3.21-1.51,12.86,12.86,0,0,0,4.75-7.61,2,2,0,0,1,1.08-1.55,4.22,4.22,0,0,0,2.27-3.7c.06-1.24-.37-1.71-1.6-1.82a.82.82,0,0,1-.84-.9C38.1,20.4,38.11,20,38.11,19.54ZM16.89,15.31l.12,0,.19-.16a15,15,0,0,1,12.28-3.9.82.82,0,0,0,.35,0,1.73,1.73,0,0,0,.92-1.74A1.63,1.63,0,0,0,29.52,8a11,11,0,0,0-11.59,4.65A5.52,5.52,0,0,0,16.89,15.31Zm21.09,0c0-2.25-3.35-6-5.64-6.38a3.53,3.53,0,0,1-.61,2.73A16.14,16.14,0,0,1,38,15.36Z"></path><path class="cls-1" d="M44.67,28.2v8.91a.87.87,0,0,1-.48.93A.81.81,0,0,1,43,37.39a4.3,4.3,0,0,1,0-.51c0-5.58.06-11.17,0-16.75A16.91,16.91,0,0,0,37.35,7.31,14.43,14.43,0,0,0,26.12,3.75a14.07,14.07,0,0,0-9.85,4.83A17.17,17.17,0,0,0,11.9,19.69c-.1,3.55,0,7.1,0,10.65a2.6,2.6,0,0,1,0,.56.75.75,0,0,1-.8.65.77.77,0,0,1-.8-.66,1.51,1.51,0,0,1,0-.3c0-3.68-.13-7.35,0-11a18.42,18.42,0,0,1,7-14.14A15.73,15.73,0,0,1,27.54,2.05,16.46,16.46,0,0,1,43.13,12.74a19.74,19.74,0,0,1,1.55,7.77C44.66,23.07,44.67,25.64,44.67,28.2Z"></path><path class="cls-1" d="M11.88,42.23c0,.78,0,1.57,0,2.35,0,.58-.31.91-.81.91a.8.8,0,0,1-.82-.91c0-1.58,0-3.17,0-4.75a.82.82,0,1,1,1.63,0C11.88,40.62,11.88,41.43,11.88,42.23Z"></path><path class="cls-1" d="M7.78,32c0-.88.25-1.25.84-1.23s.8.37.8,1.23-.27,1.21-.82,1.21S7.78,32.8,7.78,32Z"></path><path class="cls-1" d="M6.52,34.83a3.53,3.53,0,0,1-.46,0,.81.81,0,0,1,0-1.62,5.48,5.48,0,0,1,.81,0,.82.82,0,0,1,.88.8.83.83,0,0,1-.89.84H6.52Z"></path><path class="cls-1" d="M10.63,34.84h-.2c-.64,0-1-.32-1-.83s.38-.8,1-.81c.18,0,.37,0,.56,0a.8.8,0,0,1,.87.8.81.81,0,0,1-.88.84Z"></path><path class="cls-1" d="M16,35.23c0,.88-.25,1.26-.84,1.24s-.79-.37-.79-1.23c0-.12,0-.24,0-.36a.79.79,0,0,1,.81-.85.78.78,0,0,1,.82.85C16,35,16,35.11,16,35.23Z"></path><path class="cls-1" d="M9.41,36.08c0,.13,0,.27,0,.4a.82.82,0,0,1-1.63,0c0-.25,0-.51,0-.77a.82.82,0,1,1,1.63,0A2.16,2.16,0,0,1,9.41,36.08Z"></path><path class="cls-1" d="M13.09,38.11a3.53,3.53,0,0,1-.46,0,.81.81,0,0,1,0-1.62,5.61,5.61,0,0,1,.82,0,.8.8,0,0,1,.88.84.82.82,0,0,1-.88.8h-.36Z"></path><path class="cls-1" d="M17.22,38.12c-.88,0-1.25-.25-1.24-.84s.37-.8,1.23-.8,1.21.24,1.22.81S18.07,38.12,17.22,38.12Z"></path><path class="cls-1" d="M40.57,38.54a3.49,3.49,0,0,1,0,.46.81.81,0,0,1-1.62,0c0-.27,0-.54,0-.81a.82.82,0,1,1,1.64,0c0,.11,0,.23,0,.35Z"></path><path class="cls-1" d="M16,39.41a2.34,2.34,0,0,1,0,.46.74.74,0,0,1-.81.69.74.74,0,0,1-.8-.69,5.24,5.24,0,0,1,0-1,.79.79,0,0,1,.79-.78.8.8,0,0,1,.84.78c0,.17,0,.34,0,.51Z"></path><path class="cls-1" d="M37.68,41.39h-.46a.79.79,0,0,1-.74-.82.77.77,0,0,1,.76-.8,5.48,5.48,0,0,1,.81,0,.8.8,0,0,1,.87.8c0,.5-.32.81-.88.84h-.36Z"></path><path class="cls-1" d="M41.8,39.76c.86,0,1.21.23,1.22.8s-.36.84-1.24.84h-.36a.78.78,0,0,1-.84-.82.8.8,0,0,1,.86-.81Z"></path><path class="cls-1" d="M38.94,42.56a3.53,3.53,0,0,1,0-.46.76.76,0,0,1,.81-.69.75.75,0,0,1,.81.69,6.28,6.28,0,0,1,0,1,.78.78,0,0,1-.83.78.79.79,0,0,1-.79-.78,4.34,4.34,0,0,1,0-.51Z"></path><path class="cls-1" d="M27.52,34.39a5.88,5.88,0,0,1-3.73-1.31c-.49-.4-.57-.83-.26-1.23a.83.83,0,0,1,1.26-.06,4.09,4.09,0,0,0,5.32,0c.5-.38.91-.37,1.25,0s.25.84-.22,1.24A5.67,5.67,0,0,1,27.52,34.39Z"></path><path class="cls-1" d="M21.73,25.81a4,4,0,0,1-3.06-1.51.78.78,0,0,1,.06-1.18.8.8,0,0,1,1.17.12,2.29,2.29,0,0,0,3.65,0,.81.81,0,1,1,1.19,1.11A4,4,0,0,1,21.73,25.81Z"></path><path class="cls-1" d="M33.19,25.81a3.94,3.94,0,0,1-3-1.38.78.78,0,0,1,0-1.21c.38-.36.79-.32,1.21.1a2.21,2.21,0,0,0,2.82.56,3.64,3.64,0,0,0,.78-.64.82.82,0,0,1,1.18-.12.78.78,0,0,1,0,1.21A4,4,0,0,1,33.19,25.81Z"></path><path class="cls-1" d="M21.8,17.7a4.86,4.86,0,0,1,2.79,1,.82.82,0,1,1-1,1.27,3.13,3.13,0,0,0-2.49-.44,11.57,11.57,0,0,0-1.44.33c-.61.15-1,0-1.16-.52a.8.8,0,0,1,.68-1.05C20,18.05,20.92,17.89,21.8,17.7Z"></path><path class="cls-1" d="M33.16,17.7c.89.2,1.79.37,2.68.6a.77.77,0,0,1,.59,1,.84.84,0,0,1-1.06.55,15.38,15.38,0,0,0-2.51-.38,3.47,3.47,0,0,0-1.55.51c-.49.25-.92.27-1.23-.12a.8.8,0,0,1,.2-1.17A4.82,4.82,0,0,1,33.16,17.7Z"></path></svg> 