<?xml version="1.0" encoding="UTF-8"?> <svg xmlns="http://www.w3.org/2000/svg" id="Layer_1" data-name="Layer 1" width="50" height="50" viewBox="0 0 50 50"><defs><style>.cls-1{fill:#ec145b;}</style></defs><circle class="cls-1" cx="25.09" cy="33.05" r="1.01"></circle><path class="cls-1" d="M25.09,37.86C14.34,37.86,7.69,30.21,4.85,27c-.42-.49-.75-.87-1-1.06A14.36,14.36,0,0,0,1.13,24a1.28,1.28,0,0,1,.18-2.33A21,21,0,0,0,9.48,16c2.47-2.66,5.32-4,8.25-3.76a10.14,10.14,0,0,1,7.13,4.08A10.14,10.14,0,0,1,32,12.27c2.93-.2,5.78,1.1,8.25,3.76a20.87,20.87,0,0,0,8.56,5.76,1,1,0,0,1,.73.93,1.06,1.06,0,0,1-.6,1,12.41,12.41,0,0,0-3.47,2.45c-.26.25-.58.6-1,1C41.59,30.4,34.77,37.86,25.09,37.86ZM2.27,22.9a15,15,0,0,1,2.64,1.89A14.54,14.54,0,0,1,6,26c2.7,3.11,9,10.4,19.1,10.4,9,0,15.52-7.12,18.3-10.16.41-.44.74-.81,1-1.07a13.71,13.71,0,0,1,3-2.27,22.68,22.68,0,0,1-8.22-5.81c-2.15-2.32-4.58-3.44-7-3.28S27.28,15.45,25.48,18l-.62.88L24.25,18c-1.81-2.58-4.16-4.09-6.62-4.26s-4.9,1-7,3.28A23,23,0,0,1,2.27,22.9Z"></path><path class="cls-1" d="M22,33.51l-.14,0c-5.81-1.12-8.09-3.64-8.18-3.75a.75.75,0,0,1,.06-1.06.76.76,0,0,1,1.06.07S16.93,31,22.16,32A.75.75,0,0,1,22,33.51Z"></path><path class="cls-1" d="M37.69,20.65a.74.74,0,0,1-.67-.42c-1.41-2.85-5.09-2.6-5.25-2.59A.75.75,0,0,1,31,17a.74.74,0,0,1,.68-.81c.2,0,4.85-.34,6.72,3.43a.75.75,0,0,1-.34,1A.81.81,0,0,1,37.69,20.65Z"></path><path class="cls-1" d="M25.5,26.48a34.6,34.6,0,0,1-10.6-2.1c-.84-.27-1.62-.53-2.32-.72-4.33-1.19-11-.15-11-.14A.75.75,0,0,1,1.31,22c.28-.05,7-1.1,11.67.18.72.19,1.52.45,2.38.73,4.57,1.47,10.82,3.48,17.27.49,6.82-2.75,13.43-1.31,15.6-.84a.75.75,0,1,1-.32,1.46c-2.06-.44-8.33-1.8-14.69.76A18.06,18.06,0,0,1,25.5,26.48Z"></path></svg> 