<?xml version="1.0" encoding="UTF-8"?> <svg xmlns="http://www.w3.org/2000/svg" id="Layer_1" data-name="Layer 1" width="50" height="50" viewBox="0 0 50 50"><defs><style>.cls-1{fill:#ec145b;}</style></defs><path class="cls-1" d="M25.59,1.08l2.23.08A14.83,14.83,0,0,1,40.68,8.94c.08.13.14.28.23.46L39.72,10c-.5-.75-.93-1.51-1.46-2.18A13.21,13.21,0,0,0,27.75,2.57c-1.32,0-2.64,0-4,0a1.06,1.06,0,0,0-.62.22,2.42,2.42,0,0,0,0,3.83A1.28,1.28,0,0,0,24,6.8,15,15,0,0,1,33,8.89a13.5,13.5,0,0,1,6.05,8.77,39.3,39.3,0,0,1,.54,3.92c0,.18,0,.36,0,.57H41V13.84l1.28-.22a13.5,13.5,0,0,1,.15,1.48c0,3.48.07,7,0,10.44a6,6,0,0,1-2.63,4.82,1.11,1.11,0,0,0-.46.74c-.37,1.52-.77,3-1.19,4.54a.89.89,0,0,0,.43,1.16l3.14,1.73c.16.08.32.18.55.31-.19.11-.33.2-.47.27-1,.56-2,1.11-3.06,1.69a1.84,1.84,0,0,0-.63.64c-.58,1-1.13,2-1.68,3.05l-.27.45-1.74-3.17c-.79.7-1.56,1.38-2.32,2.08a.77.77,0,0,0-.1.47c0,1.48,0,3,0,4.47H30.64V44.94l-.48.26a17.31,17.31,0,0,1-4.83,2,1.3,1.3,0,0,1-.62,0,17.18,17.18,0,0,1-4.88-2L19.4,45V48.8H18v-.49c0-1.34,0-2.67,0-4a.8.8,0,0,0-.24-.55A19.8,19.8,0,0,1,10.59,31a1,1,0,0,0-.35-.58A6.45,6.45,0,0,1,7.5,25.08c0-3,0-6,0-8.95A14.43,14.43,0,0,1,8.89,9.67a1.08,1.08,0,0,0,0-.17l-4-2.3c1.24-.68,2.42-1.32,3.6-2A1.52,1.52,0,0,0,9,4.68c.61-1.07,1.19-2.15,1.77-3.23A3,3,0,0,0,11,1.08h.1l1.84,3.49.21-.13a14.22,14.22,0,0,1,8.22-3.19l2.5-.17ZM37.66,17.7c-.11-.37-.2-.74-.32-1.11A11,11,0,0,0,30.08,9a15.85,15.85,0,0,0-9.89-.12,10.53,10.53,0,0,0-5.8,4.15,15.35,15.35,0,0,0-2.53,7.15,6.86,6.86,0,0,0,.68-.64A7.28,7.28,0,0,1,17,17.34l1.76-.17a6.2,6.2,0,0,0,3.38-1.48l.91,1.06-.47.38a7.32,7.32,0,0,1-4.38,1.48,6.71,6.71,0,0,0-5,2.26c-.4.45-.87.84-1.27,1.29a1.14,1.14,0,0,0-.29.64,35,35,0,0,0,.41,8.55,19.84,19.84,0,0,0,3.09,7.91,16.61,16.61,0,0,0,9.29,6.49,1.79,1.79,0,0,0,1.12,0,16.9,16.9,0,0,0,5.58-2.94c.79-.63,1.52-1.35,2.34-2.08l-3.43-1.88c1-.52,1.79-1,2.67-1.45a3.8,3.8,0,0,0,2-2c.41-.9.94-1.74,1.45-2.67l.93,1.68c.07-.16.11-.24.14-.32a18.37,18.37,0,0,0,.9-5.59c.06-2.19,0-4.38,0-6.58a1.54,1.54,0,0,0-.17-.66,15.56,15.56,0,0,0-9-8.14,12.77,12.77,0,0,0-3.37-.77c-.21.59-.36,1.16-.59,1.7s-.55,1-.86,1.59L23,14.75a7.43,7.43,0,0,0,1.26-5.17H25.7V10.9A17.83,17.83,0,0,1,37.66,17.7ZM9.83,11.2c-.08.2-.13.3-.17.41a12.82,12.82,0,0,0-.75,4.11c0,2,0,4.07,0,6.11,0,.1,0,.21,0,.31h1.35c0-.15,0-.26,0-.37a17.55,17.55,0,0,1,1.12-6,13,13,0,0,1,8.87-8.42c.44-.12.89-.21,1.34-.32-1-1.75-1-2.38-.26-4.47A13.48,13.48,0,0,0,14,5.5l3.1,1.7-1.3.72a11.43,11.43,0,0,0-2.6,1.51A11.14,11.14,0,0,0,11.71,12L11,13.32ZM39.4,38.84c-.53-.29-1-.56-1.42-.77a2,2,0,0,1-1-1c-.21-.46-.49-.9-.76-1.4-.34.61-.61,1.16-.93,1.67a2,2,0,0,1-.6.6c-.52.33-1.06.6-1.6.9L33,39c1.69.39,2.53,1.61,3.21,3.07.25-.46.52-.87.72-1.32A2.1,2.1,0,0,1,38,39.58C38.48,39.38,38.88,39.13,39.4,38.84ZM7.8,7.2c.61.33,1.15.6,1.66.92a2.14,2.14,0,0,1,.63.64c.32.51.59,1.05.92,1.64.28-.52.55-1,.77-1.42a1.94,1.94,0,0,1,1-1c.46-.22.89-.49,1.4-.78-.62-.33-1.16-.6-1.67-.92a2,2,0,0,1-.6-.6C11.6,5.15,11.33,4.59,11,4c-.28.52-.56,1-.78,1.45a1.93,1.93,0,0,1-1,1C8.79,6.63,8.34,6.91,7.8,7.2ZM39.71,28.66c1.45-1.47,1.47-3.23,1.37-5.05H39.71Zm-29.46,0V23.6H8.92C8.83,25.42,8.84,27.18,10.25,28.67Z"></path><path class="cls-1" d="M1.16,12.45l1.43-.09V11H4V12.4H5.37v1.39H4v1.37H2.6V13.83l-1.44-.07Z"></path><path class="cls-1" d="M44.62,34.73V36.1h-1.4V34.75H41.83v-1.4h1.36V32H44.6v1.36H46v1.4Z"></path><path class="cls-1" d="M25.56,5.36H24.22V4h1.34Z"></path><path class="cls-1" d="M47.51,29.15h1.32v1.36H47.51Z"></path><path class="cls-1" d="M47.5,38.91V37.56h1.34v1.35Z"></path><path class="cls-1" d="M42,12.15l-1.33.36-.43-1.25,1.3-.51Z"></path><path class="cls-1" d="M22.88,20.79v1.38H17.7a4.94,4.94,0,0,0-3.42,1.31l-.95-1A5.62,5.62,0,0,1,17,20.81C19,20.74,20.9,20.79,22.88,20.79Z"></path><path class="cls-1" d="M27.18,22.17V20.79l.43,0h4.66A6.27,6.27,0,0,1,36.18,22l.32.27s.08.09.16.17l-.94,1a5.39,5.39,0,0,0-4.11-1.31C30.15,22.2,28.69,22.17,27.18,22.17Z"></path><path class="cls-1" d="M28.83,35.61l.73,1c-1.86,1.94-6.69,2.25-9.13,0l.74-1.06A7.1,7.1,0,0,0,28.83,35.61Z"></path><path class="cls-1" d="M21.33,26l1.22.48a3.93,3.93,0,0,1-3.63,2.66,4,4,0,0,1-4-2.53l1.22-.52A2.86,2.86,0,0,0,21.33,26Z"></path><path class="cls-1" d="M27.4,26.6l1.22-.52a2.87,2.87,0,0,0,5.22,0l1.17.5c-.22,1.25-1.85,2.42-3.51,2.55A4.08,4.08,0,0,1,27.4,26.6Z"></path><path class="cls-1" d="M15.91,15.14V13.81h1.33v1.33Z"></path><path class="cls-1" d="M20.05,15.15H18.71V13.81h1.34Z"></path></svg> 