<?xml version="1.0" encoding="UTF-8"?> <svg xmlns="http://www.w3.org/2000/svg" id="Layer_1" data-name="Layer 1" width="50" height="50" viewBox="0 0 50 50"><defs><style>.cls-1{fill:#ec145b;}</style></defs><path class="cls-1" d="M1.4,13.39a13.89,13.89,0,0,1,.82-2A4.7,4.7,0,0,1,5.45,9.13L5.9,9,6,9C6,8,6,7,6,6.06a.5.5,0,0,0-.23-.33A2.27,2.27,0,0,1,4.53,3.1,2.29,2.29,0,0,1,6.88,1.41q3.63,0,7.28,0a2.28,2.28,0,0,1,1.19,4.32.44.44,0,0,0-.22.29c0,1,0,2,0,3a5.07,5.07,0,0,1,3.08,1.48,4.92,4.92,0,0,1,1.43,4.25C18.82,21,18,27.14,17.16,33.33A5.06,5.06,0,0,1,12,37.93c-.91,0-1.81,0-2.72,0a5,5,0,0,1-5.37-4.66Q3.07,27,2.25,20.77,1.86,17.88,1.49,15a1,1,0,0,0-.09-.21Zm3.24-2.3A3.54,3.54,0,0,0,3,14.91c.31,2.19.6,4.38.89,6.57.53,4,1.05,7.94,1.59,11.91a3.33,3.33,0,0,0,2.93,3,27,27,0,0,0,4.31,0,3,3,0,0,0,2.46-1.74,6.35,6.35,0,0,0,.5-1.84c.5-3.59,1-7.18,1.45-10.77.34-2.56.69-5.11,1-7.67a3.31,3.31,0,0,0-1.69-3.19c0,.07,0,.12,0,.18q-.83,5.41-1.64,10.83a4.23,4.23,0,0,1-4.19,3.62,4.23,4.23,0,0,1-4.28-3.57c-.37-2.27-.69-4.55-1-6.82C5.07,14,4.85,12.54,4.64,11.09Zm1.51-.52c0,.07,0,.12,0,.16.56,3.73,1.1,7.46,1.69,11.19a2.76,2.76,0,0,0,2.8,2.32,2.81,2.81,0,0,0,2.69-2.49c.42-2.79.85-5.58,1.26-8.37.14-.93.27-1.85.41-2.81ZM7.51,9h6V6h-6Zm3-4.54h3.68c.55,0,.9-.32.9-.78s-.34-.73-.88-.73H6.87c-.57,0-.89.29-.88.76s.34.74.91.75Z"></path><path class="cls-1" d="M9.33,48.6a2.48,2.48,0,0,1-1.8-1.9,2.19,2.19,0,0,1,1.78-2.59c1.4-.11,2.81,0,4.25,0v1.47H9.89c-.54,0-.85.28-.86.74s.31.75.85.77H40.22V48.6Z"></path><path class="cls-1" d="M15.14,45.52A5.77,5.77,0,0,1,16,41.75c.77-1.2,1.57-2.38,2.37-3.56a.7.7,0,0,1,.48-.24,4.67,4.67,0,0,1,1.18.17.51.51,0,0,0,.6-.16l10-11.16.22-.27L29.16,25,33,21.65c3.47-3.09,6.94-6.16,10.4-9.26a1.18,1.18,0,0,1,.91-.32,4.57,4.57,0,0,1,4.33,4.52.84.84,0,0,1-.19.53q-6.24,7-12.49,14.06l-.2.26L34.17,29.8l-3.93,3.52L22.82,40c-.27.23-.44.44-.24.8a.82.82,0,0,1,.06.27c.21,1,.16,1.08-.64,1.61-1,.64-1.91,1.29-2.88,1.92A5.91,5.91,0,0,1,15.14,45.52ZM35.69,29.13l.06-.05q5.58-6.27,11.13-12.53A.73.73,0,0,0,47,16a3,3,0,0,0-2.32-2.34.91.91,0,0,0-.64.18Q37.92,19.27,31.82,24.7c-.12.1-.24.22-.29.27Zm-13,8.81.07.06,10.21-9.15L31.82,27.7Zm-6,5.87.13.13a5.26,5.26,0,0,0,1-.42c1.05-.66,2.08-1.34,3.11-2a.47.47,0,0,0,.11-.42,2.23,2.23,0,0,0-1.41-1.47.39.39,0,0,0-.56.18c-.57.89-1.19,1.75-1.75,2.65A12.73,12.73,0,0,0,16.69,43.81Z"></path><path class="cls-1" d="M6.49,29.68,8,29.48c.13,1,.26,1.94.39,2.89,0,.17.06.33.07.5a.52.52,0,0,0,.59.51h1.44v1.47a14.34,14.34,0,0,1-2,0A1.64,1.64,0,0,1,7.1,33.56C6.84,32.3,6.69,31,6.49,29.68Z"></path><path class="cls-1" d="M6.21,27.39l1.51-.2.19,1.51-1.49.21Z"></path></svg> 