<?xml version="1.0" encoding="UTF-8"?> <svg xmlns="http://www.w3.org/2000/svg" id="Layer_1" data-name="Layer 1" width="50" height="50" viewBox="0 0 50 50"><defs><style>.cls-1{fill:#ec145b;}</style></defs><path class="cls-1" d="M24.26,30.38h-.08V26.25A1.88,1.88,0,0,0,23,24.53V17.87a1.86,1.86,0,0,0-1-1.63L18.56,14.3A2.41,2.41,0,0,0,15,16.41V24.5a1.89,1.89,0,0,0-1.23,1.75v4.13h-.15A1.66,1.66,0,0,0,12,32V46.4a1.65,1.65,0,0,0,1.65,1.65H24.26a1.66,1.66,0,0,0,1.66-1.65V32A1.67,1.67,0,0,0,24.26,30.38ZM16.83,15.46a1.11,1.11,0,0,1,1.1,0l3.51,1.94a.55.55,0,0,1,.29.49v6.51H16.29v-8A1.09,1.09,0,0,1,16.83,15.46ZM15.06,26.25a.58.58,0,0,1,.58-.57H22.3a.58.58,0,0,1,.58.57v4.13H15.06ZM24.62,46.4a.36.36,0,0,1-.36.35H21.34V38.42a.65.65,0,0,0-1.3,0v8.33H13.61a.35.35,0,0,1-.35-.35V32a.35.35,0,0,1,.35-.35H24.26a.35.35,0,0,1,.36.35Z"></path><circle class="cls-1" cx="20.69" cy="35.6" r="0.92"></circle><path class="cls-1" d="M29.26,5.76a.59.59,0,0,0,.1,1.18c.12,0,3-.2,4.15,2.06a.61.61,0,0,0,.53.33.66.66,0,0,0,.27-.06.61.61,0,0,0,.27-.8C33.1,5.49,29.42,5.75,29.26,5.76Z"></path><path class="cls-1" d="M42.84,10.23a16.48,16.48,0,0,1-6.77-4.55,8.17,8.17,0,0,0-6.55-3A8,8,0,0,0,23.9,5.92,8.06,8.06,0,0,0,18.25,2.7a8.05,8.05,0,0,0-6.52,3,16.69,16.69,0,0,1-6.48,4.44,1,1,0,0,0-.66.88,1,1,0,0,0,.52,1A12.19,12.19,0,0,1,7.3,13.47c.15.15.43.46.76.85s.59.68,1,1.08l.79.85a1.21,1.21,0,0,0,.16.16.55.55,0,0,0,.34.1.63.63,0,0,0,.37-.14.55.55,0,0,0,.21-.4,0,0,0,0,0,0,0s0-.06,0-.08a.06.06,0,0,0,0,0,1.44,1.44,0,0,0-.16-.33s0,0,0,0a.34.34,0,0,0-.09-.12C9.94,14.67,9.38,14,9,13.53s-.64-.73-.85-.93a10.22,10.22,0,0,0-1.52-1.14,23,23,0,0,1,7.59.25c.56.16,1.17.35,1.84.57a27.1,27.1,0,0,0,8.39,1.66,14.4,14.4,0,0,0,6.11-1.31,18.88,18.88,0,0,1,10.16-.88,10,10,0,0,0-1.32,1.12c-.21.2-.49.5-.8.86-1.89,2-5.94,6.49-11.59,7.71h-.05l-.18,0a.6.6,0,0,0,.2,1.16h0a1.11,1.11,0,0,0,.26-.07c6-1.26,10.22-5.9,12.21-8,.3-.35.56-.62.76-.82a10,10,0,0,1,2.74-1.94.81.81,0,0,0,.48-.8A.84.84,0,0,0,42.84,10.23ZM30,11.54c-5.11,2.37-10,.77-13.67-.39-.68-.22-1.31-.43-1.88-.58A21,21,0,0,0,8,10.14,19.15,19.15,0,0,0,12.6,6.48a7,7,0,0,1,5.57-2.6A7.19,7.19,0,0,1,23.4,7.25l.5.7.48-.7a7.19,7.19,0,0,1,5.24-3.37,7,7,0,0,1,5.57,2.6,18.39,18.39,0,0,0,5.23,4A19.92,19.92,0,0,0,30,11.54Z"></path></svg> 