<?xml version="1.0" encoding="UTF-8"?> <svg xmlns="http://www.w3.org/2000/svg" id="Layer_1" data-name="Layer 1" width="50" height="50" viewBox="0 0 50 50"><defs><style>.cls-1{fill:#ec145b;}</style></defs><path class="cls-1" d="M9.15,49.34c-1.74-1-2.3-2.72-2.59-4.56a10.88,10.88,0,0,1,2-8.53A8.68,8.68,0,0,0,10,32.84a9.44,9.44,0,0,0-.55-5.53c-.52-1.33-1.16-2.63-1.67-4a19.35,19.35,0,0,1-1.1-10.43.77.77,0,0,1,.87-.73.79.79,0,0,1,.62,1A18.45,18.45,0,0,0,9.85,24.34a18.82,18.82,0,0,1,1.69,4.86,10.13,10.13,0,0,1-1.76,7.88,9.81,9.81,0,0,0-1.47,8.61A3.4,3.4,0,0,0,9.86,48c.51.29.43.85-.14,1.36Z"></path><path class="cls-1" d="M42,49.34c-.47-.12-1-.2-1.41-.35a6.44,6.44,0,0,1-4.17-4.74.74.74,0,0,1,.49-1,.76.76,0,0,1,.94.5c.09.24.16.48.25.72a4.66,4.66,0,0,0,4.6,3.29.84.84,0,0,1,.87.53.73.73,0,0,1-.38.92.56.56,0,0,0,0,.08Z"></path><path class="cls-1" d="M30,26.22A15.75,15.75,0,0,1,29,32.07a10.38,10.38,0,0,1-8.28,6.53A15.92,15.92,0,0,0,15.9,40a7.29,7.29,0,0,0-4.19,6.89c0,.55-.3.9-.76.89a.78.78,0,0,1-.76-.9,9,9,0,0,1,5.17-8.31,17.26,17.26,0,0,1,5.12-1.51,9.22,9.22,0,0,0,7.84-8.49,15,15,0,0,0-.27-5.78,9.73,9.73,0,0,0-3.54-5.25,34.14,34.14,0,0,1-8.34-8.74c-.18-.27-.35-.53-.51-.8A.76.76,0,1,1,17,7.25c1,1.32,1.89,2.69,2.93,4a28.36,28.36,0,0,0,5.17,4.86,11.59,11.59,0,0,1,4.72,7.51C29.93,24.45,29.94,25.34,30,26.22Z"></path><path class="cls-1" d="M14.75,25c.69.31.87.54.73,1.29a4.17,4.17,0,0,1-.55,1.33c-.24.43-.24.76.2,1a2.63,2.63,0,0,0,1,.25,7.72,7.72,0,0,0,3.42-.61,1,1,0,0,1,1.18.16,4.14,4.14,0,0,1,1.59,3.9A6.57,6.57,0,0,1,20.82,36c-.43.52-.86.62-1.25.3s-.34-.73.07-1.25a4.8,4.8,0,0,0,1.1-3.93,2,2,0,0,0-.16-.49c-.37-.83-.48-.88-1.33-.64a8.66,8.66,0,0,1-3.85.33,2.42,2.42,0,0,1-2.14-3.05c0-.22.31-.39.45-.61s.13-.31.09-.35a1.8,1.8,0,0,1-.56-1.72.52.52,0,0,0-.46-.63c-.41-.11-.81-.26-1.21-.39a.82.82,0,0,1-.62-.85,4.49,4.49,0,0,1,1-3.09,2.19,2.19,0,0,0,.27-2.42A6.71,6.71,0,0,1,14.24,9.3a.75.75,0,0,1,1.1.08.74.74,0,0,1-.16,1.09A5.34,5.34,0,0,0,13.34,16a2,2,0,0,0,.22.63,3.46,3.46,0,0,1-.36,3.83,8.76,8.76,0,0,0-.67,1.29c-.15.32-.07.56.34.65a10.45,10.45,0,0,1,1.08.35c.68.23.8.39.8,1.09Z"></path><path class="cls-1" d="M21.33.75A24.92,24.92,0,0,1,34.5,5a15.68,15.68,0,0,1,3.68,3.59.78.78,0,0,1-.06,1.14A.74.74,0,0,1,37,9.5C34.4,6,30.77,4.2,26.69,3.13a24.27,24.27,0,0,0-6-.86,12.26,12.26,0,0,0-6.78,2,1.88,1.88,0,0,1-.54.29.7.7,0,0,1-.85-.43.69.69,0,0,1,.31-.95C13.91,2.58,15,2,16.09,1.53A13.62,13.62,0,0,1,21.33.75Z"></path><path class="cls-1" d="M14,6.87a.75.75,0,0,1-.66.7c-2.13.39-3,1.32-3.13,3.51,0,.1,0,.19,0,.29a.76.76,0,0,1-.75.76.79.79,0,0,1-.77-.75,10.83,10.83,0,0,0-.36-1.8,2.66,2.66,0,0,0-2.63-2,.76.76,0,0,1-.8-.76.75.75,0,0,1,.71-.75,3,3,0,0,0,3-2.91c0-.28.07-.56.09-.85a.77.77,0,0,1,.76-.8c.43,0,.69.31.77.8a10.89,10.89,0,0,0,.47,2.05,2.57,2.57,0,0,0,2.46,1.7A.79.79,0,0,1,14,6.87ZM9.43,5.44,8.24,6.82,9.43,8.2l1.2-1.38Z"></path><path class="cls-1" d="M40.56,7.58c.43,0,.7.31.77.8a10.09,10.09,0,0,0,.37,1.8,2.66,2.66,0,0,0,2.61,2,.76.76,0,1,1,.07,1.51,3,3,0,0,0-3,2.85c0,.31-.07.62-.1.94a.78.78,0,0,1-.75.77.81.81,0,0,1-.77-.75,12.64,12.64,0,0,0-.38-1.85,2.66,2.66,0,0,0-2.61-2,.74.74,0,0,1-.8-.75.75.75,0,0,1,.7-.76,3.05,3.05,0,0,0,3-3c0-.3.06-.6.09-.89A.77.77,0,0,1,40.56,7.58Zm0,3.93-1.19,1.38,1.19,1.38,1.19-1.38Z"></path><path class="cls-1" d="M40.56,36.49a.73.73,0,0,1-.66.69c-2.1.37-3,1.33-3.12,3.53,0,.09,0,.18,0,.28a.76.76,0,0,1-.76.75.77.77,0,0,1-.75-.71A13.33,13.33,0,0,0,35,39.62a2.84,2.84,0,0,0-2.84-2.43.76.76,0,0,1-.74-.77.73.73,0,0,1,.72-.74c1.88,0,2.7-1.39,3-2.87.06-.31.07-.63.1-.94a.76.76,0,0,1,.77-.75.81.81,0,0,1,.76.76,10.8,10.8,0,0,0,.46,2.06,2.55,2.55,0,0,0,2.48,1.73A.77.77,0,0,1,40.56,36.49ZM36,37.81l1.2-1.38L36,35.05l-1.19,1.38Z"></path><path class="cls-1" d="M41.33,21.54a46.38,46.38,0,0,1-1.49,10c-.16.63-.5.9-1,.79s-.66-.52-.5-1.14a44.35,44.35,0,0,0,1.43-11.29c0-.6.29-.94.77-.94s.74.36.75,1Z"></path></svg> 