<?xml version="1.0" encoding="UTF-8"?> <svg xmlns="http://www.w3.org/2000/svg" id="Layer_1" data-name="Layer 1" width="50" height="50" viewBox="0 0 50 50"><defs><style>.cls-1{fill:#ec145b;}</style></defs><path class="cls-1" d="M11.33,25.93l-.05,0h0V20.48c0-1.23-.08-1.32-1.29-1.36,0,0,0,0,0,0h0V15.9c0-2.77,0-5.53,0-8.3a.76.76,0,0,0-.64-.86.81.81,0,0,0-.88.51,13.65,13.65,0,0,1-1,1.67,5.68,5.68,0,0,1-3.47,2.33c-.65.13-.81.32-.81,1v6.88H3c-1,0-1.16.19-1.16,1.17v5.5l-1.08.54-.06,0V42.83l0,0a1.32,1.32,0,0,0,1.06.42h9.67c.88,0,1.09-.22,1.09-1.1v-15C12.51,26.11,12.4,26,11.33,25.93ZM4.65,13c0-.25,0-.35.3-.43a7.63,7.63,0,0,0,3.46-2.38V19.1H4.68a1.94,1.94,0,0,1,0-.24v-2C4.66,15.55,4.66,14.26,4.65,13Zm.57,9.79a.75.75,0,0,0-.76-.8h0a.75.75,0,0,0-.76.81v3s0,.06,0,.1H3.35V20.68H9.73v5.24H5.22V24c0-.13,0-.26,0-.39C5.23,23.33,5.23,23.05,5.22,22.77Zm-3,6.45V27.49H11v1.73Zm2.14,3.54a.71.71,0,0,0-.73-.66h0a.71.71,0,0,0-.75.68,1.16,1.16,0,0,0,0,.32v8.61H2.22V30.8H11V41.72H4.37V33.09A1.22,1.22,0,0,0,4.36,32.76Z"></path><path class="cls-1" d="M39.24,35.12H33.13A13.36,13.36,0,0,0,26.86,10h-.14a13.38,13.38,0,0,0-6.23,25.17h-6c-.76,0-1,.25-1,1,0,1.09,0,2.17,0,3.26a3.87,3.87,0,0,0,3.87,3.9H36.38a3.8,3.8,0,0,0,3.86-3.84c0-.86,0-1.73,0-2.59v-.72C40.24,35.37,40,35.12,39.24,35.12ZM15,37.57c0-.3,0-.6,0-.9h6.88v2.24c0,.94.2,1.14,1.14,1.14h7.76c.81,0,1.05-.23,1.05-1V36.66h6.9V38.2c0,.43,0,.88,0,1.31a2.2,2.2,0,0,1-2.21,2.23H17.19a2.13,2.13,0,0,1-2.18-2A20.45,20.45,0,0,1,15,37.57ZM35.24,15a11.83,11.83,0,0,1-8.35,20.16h0a11.89,11.89,0,0,1-8.44-3.53A11.7,11.7,0,0,1,15,23.25,11.89,11.89,0,0,1,26.89,11.47h0A11.7,11.7,0,0,1,35.24,15ZM23.43,38.5V36.68h6.84V38.5Z"></path><path class="cls-1" d="M48.36,26H46V19.32h1.11a.76.76,0,0,0,.85-.77A.78.78,0,0,0,47,17.8H46v-.26h.36l.73,0a.77.77,0,1,0,0-1.52H45.92l0-.27h1.22A.71.71,0,0,0,47.9,15a.7.7,0,0,0-.17-.52.76.76,0,0,0-.56-.26H46l-.06,0v-.25h1.12a.77.77,0,0,0,.85-.77c0-.46-.34-.74-.87-.75H45.91l0,0s.12-.11.16-.11a5.62,5.62,0,0,1,.58,0h.4a.76.76,0,0,0,.82-.75.75.75,0,0,0-.81-.76c-1.28,0-2.59,0-3.88,0a.74.74,0,0,0-.81.75.75.75,0,0,0,.81.76h1c.14,0,.17,0,.17,0s0,0,0,.15H43.19a.73.73,0,0,0-.77.73.65.65,0,0,0,.17.52.85.85,0,0,0,.61.27h1.18v.25H43.2a.88.88,0,0,0-.62.26.68.68,0,0,0-.16.52.71.71,0,0,0,.77.73h1.18V16h-1.2a.76.76,0,1,0,0,1.51h1.2v.26h-.62c-.84,0-1.33.12-1.34.75a.68.68,0,0,0,.17.5,1.62,1.62,0,0,0,1.15.27h.63V26H42c-.72,0-1,.25-1,1V42.29c0,.72.26,1,1,1h6.39c.72,0,1-.26,1-1V27C49.33,26.29,49.07,26,48.36,26Zm-.58,14.8v.88H42.55v-.88Zm0-13.24V39.26H42.54V27.6Z"></path><path class="cls-1" d="M16.38,23.29a10.34,10.34,0,0,0,3.07,7.38,10.44,10.44,0,1,0,7.47-17.79h0a10.53,10.53,0,0,0-7.43,3A10.32,10.32,0,0,0,16.38,23.29Zm1.53,0a9,9,0,0,1,9-8.85h0a9,9,0,0,1,8.85,9,8.91,8.91,0,0,1-8.91,8.83h0a9,9,0,0,1-6.35-2.61A8.83,8.83,0,0,1,17.91,23.25Z"></path><path class="cls-1" d="M23.55,25.53c-.45.45-.92.91-1.35,1.4a1,1,0,0,0-.16.81.88.88,0,0,0,.37.4l.23.17.06.05.06-.05.25-.17a2.61,2.61,0,0,0,.45-.33l7.59-7.67.26-.27a1.89,1.89,0,0,0,.32-.37.74.74,0,0,0,.1-.57.57.57,0,0,0-.29-.36,1.32,1.32,0,0,0-.83-.09.63.63,0,0,0-.35.26l-.09.1L24,25.06Z"></path><path class="cls-1" d="M21.28,24.34h0A1,1,0,0,0,22,24l5.59-5.59a2.07,2.07,0,0,0,.25-.36l.14-.22,0-.07,0-.05-.17-.21a1.33,1.33,0,0,0-.38-.4c-.39-.23-.72,0-1,.25L23.83,20c-1,1-2,2-2.95,3-.55.56-.32,1-.14,1.17A.76.76,0,0,0,21.28,24.34Z"></path><path class="cls-1" d="M26.13,28.28a.89.89,0,0,0-.3.63.74.74,0,0,0,.24.51.76.76,0,0,0,.53.22.91.91,0,0,0,.62-.29c1.81-1.8,3.66-3.65,5.65-5.65a1.39,1.39,0,0,0,.24-.37,2,2,0,0,1,.14-.23l0-.07L33.23,23c-.06-.06-.11-.13-.17-.2a.88.88,0,0,0-.43-.37,1,1,0,0,0-.84.24C29.83,24.56,27.86,26.54,26.13,28.28Z"></path></svg> 